<svg width="28" height="29" viewBox="0 0 28 29" fill="none" xmlns="http://www.w3.org/2000/svg">
<rect width="28" height="28.407" rx="14" fill="white"/>
<path d="M17.2765 10.1584C10.7097 10.4056 7.28376 16.4337 6.22619 19.9033C6.14852 20.1582 6.34384 20.407 6.61024 20.407C6.77177 20.407 6.91835 20.3093 6.98713 20.1632C9.45251 14.9246 15.0065 14.003 17.346 14.2103C17.5496 14.2283 17.6954 14.4033 17.6954 14.6078V16.3443C17.6954 16.7126 18.1383 16.8998 18.4025 16.6431L21.6657 13.4723C21.8113 13.3309 21.8338 13.1052 21.7189 12.9378L18.4557 8.18171C18.2241 7.84415 17.6954 8.00806 17.6954 8.41745V9.73393C17.6954 9.96405 17.5064 10.1498 17.2765 10.1584Z" fill="white" stroke="#761B7B" stroke-width="1.5" stroke-linecap="round" stroke-linejoin="round"/>
</svg>
