<svg width="24" height="24" viewBox="0 0 24 24" fill="none" xmlns="http://www.w3.org/2000/svg">
<path d="M5.36688 17.3071C4.76778 17.3071 4.25867 17.5084 3.83935 17.9109C3.42019 18.3137 3.21045 18.8023 3.21045 19.3774C3.21045 19.9526 3.42003 20.4413 3.83935 20.8441C4.25882 21.2466 4.76793 21.4478 5.36688 21.4478C5.95592 21.4478 6.46246 21.2466 6.88682 20.8441C7.31101 20.4418 7.52311 19.9526 7.52311 19.3774C7.52311 18.8023 7.31106 18.314 6.88682 17.9109C6.46241 17.5087 5.95592 17.3071 5.36688 17.3071Z" fill="white"/>
<path d="M4.88796 12.9374C4.88796 12.3049 4.65347 11.7636 4.18422 11.3128C3.71502 10.8624 3.1509 10.6372 2.49205 10.6372C1.83315 10.6372 1.26913 10.8624 0.799881 11.3128C0.330737 11.7632 0.0961914 12.3047 0.0961914 12.9374C0.0961914 13.5697 0.330685 14.1109 0.799881 14.5615C1.26913 15.0121 1.83315 15.2373 2.49205 15.2373C3.1509 15.2373 3.71502 15.0121 4.18422 14.5615C4.65347 14.1112 4.88796 13.5697 4.88796 12.9374Z" fill="white"/>
<path d="M18.784 7.64738C19.1132 7.64738 19.3956 7.5346 19.6299 7.30949C19.8645 7.08418 19.9821 6.81336 19.9821 6.49717C19.9821 6.18083 19.8645 5.91021 19.6299 5.68506C19.3955 5.45975 19.1132 5.34717 18.784 5.34717C18.4545 5.34717 18.1723 5.45995 17.9377 5.68506C17.7033 5.91026 17.5859 6.18083 17.5859 6.49717C17.5859 6.81351 17.7033 7.08418 17.9377 7.30949C18.1723 7.5348 18.4545 7.64738 18.784 7.64738Z" fill="white"/>
<path d="M5.36699 3.96777C4.63812 3.96777 4.01673 4.21458 3.50258 4.70804C2.98839 5.20151 2.73145 5.79808 2.73145 6.49762C2.73145 7.19741 2.98839 7.79374 3.50258 8.2874C4.01688 8.78102 4.63828 9.02777 5.36699 9.02777C6.0957 9.02777 6.71715 8.78087 7.23119 8.2874C7.74522 7.79374 8.00232 7.19726 8.00232 6.49762C8.00232 5.79808 7.74522 5.20151 7.23119 4.70804C6.71715 4.21458 6.0957 3.96777 5.36699 3.96777Z" fill="white"/>
<path d="M22.677 11.9598C22.3975 11.6914 22.0581 11.5574 21.659 11.5574C21.2594 11.5574 20.92 11.6914 20.6406 11.9598C20.3613 12.2281 20.2217 12.554 20.2217 12.9376C20.2217 13.3207 20.3613 13.6471 20.6406 13.9148C20.9202 14.1833 21.2594 14.3173 21.659 14.3173C22.0581 14.3173 22.3977 14.1833 22.677 13.9148C22.9566 13.6468 23.0961 13.3207 23.0961 12.9376C23.0961 12.5542 22.9568 12.2283 22.677 11.9598Z" fill="white"/>
<path d="M18.7837 17.7673C18.3242 17.7673 17.9299 17.9253 17.6004 18.2417C17.2712 18.5577 17.1064 18.9364 17.1064 19.3775C17.1064 19.8182 17.2712 20.1969 17.6004 20.5133C17.9299 20.8296 18.3243 20.9875 18.7837 20.9875C19.2428 20.9875 19.6371 20.8293 19.9667 20.5133C20.2962 20.197 20.4608 19.8184 20.4608 19.3775C20.4608 18.9364 20.2962 18.5581 19.9667 18.2417C19.6372 17.9253 19.2428 17.7673 18.7837 17.7673Z" fill="white"/>
<path d="M12.0751 20.2969C11.546 20.2969 11.0942 20.4769 10.7197 20.8364C10.3454 21.1958 10.1582 21.6292 10.1582 22.1372C10.1582 22.6452 10.3452 23.0787 10.7197 23.4381C11.0942 23.7975 11.5458 23.9774 12.0751 23.9774C12.6043 23.9774 13.0558 23.7975 13.4303 23.4381C13.8047 23.0787 13.9919 22.6452 13.9919 22.1372C13.9919 21.6292 13.8047 21.1958 13.4303 20.8364C13.0558 20.4769 12.6043 20.2969 12.0751 20.2969Z" fill="white"/>
<path d="M12.0754 0.977539C11.2769 0.977539 10.5977 1.24574 10.0386 1.78241C9.47969 2.31912 9.2002 2.97093 9.2002 3.73753C9.2002 4.50418 9.47958 5.15569 10.0386 5.69245C10.5977 6.22901 11.2767 6.49737 12.0754 6.49737C12.8743 6.49737 13.5529 6.22917 14.1118 5.69245C14.6707 5.15594 14.9502 4.50418 14.9502 3.73753C14.9502 2.97098 14.6707 2.31932 14.1118 1.78241C13.5529 1.2459 12.8743 0.977539 12.0754 0.977539Z" fill="white"/>
</svg>
