<svg width="27" height="27" viewBox="0 0 27 27" fill="none" xmlns="http://www.w3.org/2000/svg">
<path d="M6.05441 19.437C5.37716 19.437 4.80164 19.6645 4.32763 20.1195C3.85379 20.5749 3.6167 21.1272 3.6167 21.7774C3.6167 22.4276 3.85362 22.9799 4.32763 23.4353C4.80182 23.8903 5.37733 24.1178 6.05441 24.1178C6.72028 24.1178 7.29289 23.8903 7.77259 23.4353C8.25212 22.9805 8.49188 22.4276 8.49188 21.7774C8.49188 21.1272 8.25218 20.5753 7.77259 20.1195C7.29283 19.6649 6.72028 19.437 6.05441 19.437Z" fill="#2E2E2E"/>
<path d="M5.51297 14.4974C5.51297 13.7824 5.24789 13.1705 4.71744 12.6609C4.18704 12.1517 3.54934 11.8972 2.80455 11.8972C2.05971 11.8972 1.42212 12.1518 0.891666 12.6609C0.36133 13.1701 0.0961914 13.7822 0.0961914 14.4974C0.0961914 15.2123 0.361271 15.824 0.891666 16.3334C1.42212 16.8427 2.05971 17.0973 2.80455 17.0973C3.54934 17.0973 4.18704 16.8427 4.71744 16.3334C5.24789 15.8244 5.51297 15.2123 5.51297 14.4974Z" fill="#2E2E2E"/>
<path d="M21.2215 8.51748C21.5936 8.51748 21.9129 8.38999 22.1778 8.13552C22.443 7.88082 22.5758 7.57467 22.5758 7.21724C22.5758 6.85964 22.443 6.55372 22.1778 6.2992C21.9128 6.0445 21.5936 5.91724 21.2215 5.91724C20.849 5.91724 20.53 6.04473 20.2648 6.2992C19.9998 6.55378 19.8672 6.85964 19.8672 7.21724C19.8672 7.57484 19.9998 7.88082 20.2648 8.13552C20.53 8.39021 20.849 8.51748 21.2215 8.51748Z" fill="#2E2E2E"/>
<path d="M6.05451 4.35791C5.23057 4.35791 4.52812 4.63691 3.94692 5.19474C3.36565 5.75257 3.0752 6.42696 3.0752 7.21774C3.0752 8.00881 3.36565 8.68291 3.94692 9.24097C4.5283 9.79897 5.23075 10.0779 6.05451 10.0779C6.87826 10.0779 7.58077 9.7988 8.16186 9.24097C8.74295 8.68291 9.03358 8.00864 9.03358 7.21774C9.03358 6.42696 8.74295 5.75257 8.16186 5.19474C7.58077 4.63691 6.87826 4.35791 6.05451 4.35791Z" fill="#2E2E2E"/>
<path d="M25.6222 13.3921C25.3063 13.0888 24.9227 12.9373 24.4714 12.9373C24.0198 12.9373 23.6361 13.0888 23.3202 13.3921C23.0045 13.6955 22.8467 14.0639 22.8467 14.4975C22.8467 14.9306 23.0045 15.2995 23.3202 15.6022C23.6363 15.9057 24.0198 16.0572 24.4714 16.0572C24.9227 16.0572 25.3066 15.9057 25.6222 15.6022C25.9383 15.2992 26.096 14.9306 26.096 14.4975C26.096 14.0641 25.9386 13.6957 25.6222 13.3921Z" fill="#2E2E2E"/>
<path d="M21.2212 19.9573C20.7018 19.9573 20.2561 20.1359 19.8836 20.4935C19.5115 20.8507 19.3252 21.2788 19.3252 21.7774C19.3252 22.2757 19.5115 22.7038 19.8836 23.0614C20.2561 23.419 20.7019 23.5974 21.2212 23.5974C21.7403 23.5974 22.186 23.4186 22.5585 23.0614C22.931 22.7038 23.1171 22.2759 23.1171 21.7774C23.1171 21.2788 22.931 20.8511 22.5585 20.4935C22.186 20.1358 21.7403 19.9573 21.2212 19.9573Z" fill="#2E2E2E"/>
<path d="M13.6376 22.8169C13.0395 22.8169 12.5288 23.0204 12.1054 23.4267C11.6824 23.8331 11.4707 24.323 11.4707 24.8973C11.4707 25.4715 11.6821 25.9615 12.1054 26.3678C12.5288 26.7741 13.0393 26.9775 13.6376 26.9775C14.2358 26.9775 14.7463 26.7741 15.1695 26.3678C15.5928 25.9615 15.8044 25.4715 15.8044 24.8973C15.8044 24.323 15.5928 23.8331 15.1695 23.4267C14.7463 23.0204 14.2358 22.8169 13.6376 22.8169Z" fill="#2E2E2E"/>
<path d="M13.6379 0.977539C12.7352 0.977539 11.9675 1.28073 11.3355 1.88739C10.7036 2.49411 10.3877 3.23093 10.3877 4.09753C10.3877 4.96418 10.7035 5.70067 11.3355 6.30744C11.9675 6.91399 12.735 7.21735 13.6379 7.21735C14.541 7.21735 15.3082 6.91416 15.94 6.30744C16.5717 5.70095 16.8877 4.96418 16.8877 4.09753C16.8877 3.23099 16.5717 2.49434 15.94 1.88739C15.3082 1.2809 14.541 0.977539 13.6379 0.977539Z" fill="#2E2E2E"/>
</svg>
