<svg width="17" height="17" viewBox="0 0 17 17" fill="none" xmlns="http://www.w3.org/2000/svg">
<g clip-path="url(#clip0_82_6604)">
<path d="M8.6416 2.63843H3.68327C3.30754 2.63843 2.94721 2.78768 2.68153 3.05336C2.41586 3.31904 2.2666 3.67937 2.2666 4.05509V13.9718C2.2666 14.3475 2.41586 14.7078 2.68153 14.9735C2.94721 15.2392 3.30754 15.3884 3.68327 15.3884H13.5999C13.9757 15.3884 14.336 15.2392 14.6017 14.9735C14.8673 14.7078 15.0166 14.3475 15.0166 13.9718V9.01343" stroke="#761B7B" stroke-linecap="round" stroke-linejoin="round"/>
<path d="M13.9541 1.5734C14.2359 1.29161 14.6181 1.1333 15.0166 1.1333C15.4151 1.1333 15.7973 1.29161 16.0791 1.5734C16.3609 1.8552 16.5192 2.23739 16.5192 2.6359C16.5192 3.03442 16.3609 3.41661 16.0791 3.6984L9.34994 10.4276L6.5166 11.1359L7.22493 8.30257L13.9541 1.5734Z" stroke="#761B7B" stroke-linecap="round" stroke-linejoin="round"/>
</g>
<defs>
<clipPath id="clip0_82_6604">
<rect width="17" height="17" fill="white"/>
</clipPath>
</defs>
</svg>
