<svg width="27" height="27" viewBox="0 0 27 27" fill="none" xmlns="http://www.w3.org/2000/svg">
<path fill-rule="evenodd" clip-rule="evenodd" d="M16.031 6.18741C16.0311 5.33318 16.3303 4.50595 16.8766 3.84928C17.423 3.19262 18.182 2.74798 19.022 2.59254C19.8619 2.4371 20.7298 2.58068 21.475 2.99834C22.2201 3.41601 22.7955 4.0814 23.1013 4.87902C23.4071 5.67665 23.4239 6.55616 23.1489 7.36491C22.8738 8.17365 22.3243 8.86057 21.5957 9.30643C20.8671 9.7523 20.0053 9.92897 19.16 9.80578C18.3147 9.68259 17.5392 9.26732 16.9682 8.63203L13.9115 10.2993L10.4915 12.2534C10.9697 13.095 11.0951 14.0916 10.8403 15.0254L16.9682 18.3678C17.5677 17.7017 18.391 17.279 19.2816 17.1799C20.1723 17.0809 21.0683 17.3124 21.7996 17.8305C22.5308 18.3486 23.0463 19.1172 23.2481 19.9903C23.4499 20.8635 23.324 21.7803 22.8944 22.5668C22.4647 23.3532 21.7611 23.9545 20.9173 24.2563C20.0735 24.5582 19.1483 24.5397 18.3172 24.2042C17.4862 23.8688 16.8073 23.2399 16.4095 22.4368C16.0117 21.6338 15.9226 20.7126 16.1593 19.8483L10.0314 16.507C9.5644 17.0265 8.95836 17.4013 8.28501 17.5871C7.61166 17.7728 6.89918 17.7619 6.23187 17.5554C5.56457 17.349 4.97036 16.9557 4.51957 16.4221C4.06878 15.8885 3.78027 15.237 3.68817 14.5446C3.59607 13.8522 3.70425 13.1479 3.9999 12.515C4.29555 11.8821 4.76629 11.3472 5.35643 10.9735C5.94658 10.5998 6.63142 10.403 7.32992 10.4063C8.02842 10.4096 8.71136 10.613 9.29791 10.9923L13.0892 8.82553L16.1593 7.15041C16.0739 6.83653 16.0308 6.51268 16.031 6.18741ZM19.6873 4.21866C19.1651 4.21866 18.6644 4.42608 18.2952 4.79529C17.926 5.16451 17.7185 5.66526 17.7185 6.18741C17.7185 6.70955 17.926 7.21031 18.2952 7.57953C18.6644 7.94874 19.1651 8.15616 19.6873 8.15616C20.2094 8.15616 20.7102 7.94874 21.0794 7.57953C21.4486 7.21031 21.656 6.70955 21.656 6.18741C21.656 5.66526 21.4486 5.16451 21.0794 4.79529C20.7102 4.42608 20.2094 4.21866 19.6873 4.21866ZM7.31229 12.0937C6.79014 12.0937 6.28938 12.3011 5.92017 12.6703C5.55096 13.0395 5.34354 13.5403 5.34354 14.0624C5.34354 14.5846 5.55096 15.0853 5.92017 15.4545C6.28938 15.8237 6.79014 16.0312 7.31229 16.0312C7.83443 16.0312 8.33519 15.8237 8.7044 15.4545C9.07362 15.0853 9.28104 14.5846 9.28104 14.0624C9.28104 13.5403 9.07362 13.0395 8.7044 12.6703C8.33519 12.3011 7.83443 12.0937 7.31229 12.0937ZM17.7185 20.8124C17.7185 20.2903 17.926 19.7895 18.2952 19.4203C18.6644 19.0511 19.1651 18.8437 19.6873 18.8437C20.2094 18.8437 20.7102 19.0511 21.0794 19.4203C21.4486 19.7895 21.656 20.2903 21.656 20.8124C21.656 21.3346 21.4486 21.8353 21.0794 22.2045C20.7102 22.5737 20.2094 22.7812 19.6873 22.7812C19.1651 22.7812 18.6644 22.5737 18.2952 22.2045C17.926 21.8353 17.7185 21.3346 17.7185 20.8124Z" fill="white"/>
</svg>
