<svg width="215" height="143" viewBox="0 0 215 143" fill="none" xmlns="http://www.w3.org/2000/svg">
<path d="M203.608 16.3936H174.844V55.6127H203.608V16.3936Z" fill="#E0E0E0"/>
<path d="M202.593 17.4658H175.844V54.5829H202.593V17.4658Z" fill="#FAFAFA"/>
<path d="M193.583 26.1548H184.856V47.416H193.583V26.1548Z" fill="#E0E0E0"/>
<path d="M30.9053 126.069C37.6591 122.797 40.2936 115.152 41.1794 108.051C41.3285 106.864 41.6553 105.64 41.2597 104.516C40.8641 103.392 39.6601 102.476 38.522 102.8C37.5789 103.071 37.0342 104.029 36.4093 104.802C35.5729 105.821 34.4649 106.585 33.2129 107.004C32.3988 107.273 31.427 107.364 30.7505 106.838C29.8188 106.114 29.9249 104.687 30.1169 103.515C30.482 101.333 30.8451 99.1493 31.2063 96.9624C31.4012 95.7898 31.5961 94.5914 31.4069 93.4217C31.2177 92.252 30.5756 91.0851 29.5063 90.596C28.4371 90.107 26.9521 90.5302 26.5307 91.6399C26.3559 92.1032 26.3759 92.6152 26.2641 93.0957C26.1523 93.5761 25.8427 94.0795 25.3554 94.1424C24.8681 94.2053 24.4467 93.7992 24.1514 93.3988C23.1251 92.0203 22.5461 90.3644 22.0186 88.7256C21.4911 87.0868 20.9895 85.4108 20.0951 83.9437C19.2007 82.4765 17.839 81.2238 16.1706 80.8463C14.5022 80.4688 12.5414 81.2238 11.8505 82.8168C11.1597 84.4098 11.8505 86.2488 12.7105 87.7417C13.9504 89.9765 15.5089 92.0198 17.3373 93.8078C17.667 94.131 18.0225 94.477 18.0941 94.9346C18.226 95.7583 17.3574 96.4161 16.5433 96.5505C15.6202 96.7021 14.6828 96.4619 13.7483 96.4247C12.8137 96.3875 11.7416 96.6306 11.2715 97.44C10.5978 98.564 11.4033 99.9797 12.2605 100.961C13.9793 102.925 16.0244 104.58 18.3063 105.851C19.1204 106.303 19.9861 106.726 20.5996 107.444C21.2131 108.162 21.4596 109.283 20.9006 110.041C20.3416 110.799 19.2236 110.899 18.3435 110.582C17.4635 110.264 16.7296 109.652 15.9183 109.189C14.399 108.331 12.2949 108.105 11.045 109.332C10.2194 110.141 9.95568 111.408 10.1248 112.555C10.2939 113.702 10.8443 114.752 11.4463 115.738C13.5533 119.17 16.4802 122.148 20.0234 124.032C23.5666 125.917 26.9837 126.826 30.9167 126.06" fill="#EBEBEB"/>
<path d="M29.9481 126.443C30.1401 123.603 30.2663 125.076 29.7847 121.347C29.2235 117.31 28.4291 113.309 27.4053 109.364L26.6227 106.252C26.3733 105.248 26.1039 104.221 25.8 103.246C25.1948 101.377 24.4857 99.5424 23.6758 97.7519C22.9161 96.0359 22.1335 94.4372 21.3825 92.9471C20.6314 91.457 19.9119 90.09 19.2067 88.863C18.0917 86.9242 16.8245 85.0766 15.4169 83.3375C14.921 82.7198 14.5197 82.2564 14.2445 81.9447L13.9263 81.5929C13.8923 81.5517 13.8549 81.5135 13.8145 81.4785C13.8416 81.5244 13.8733 81.5675 13.9091 81.6072L14.1957 81.9733C14.4595 82.2936 14.8493 82.7684 15.3424 83.389C16.7215 85.1442 17.9672 86.9998 19.0691 88.9403C19.7714 90.1672 20.4823 91.5429 21.2219 93.0329C21.9615 94.523 22.7355 96.1274 23.4866 97.8377C24.2873 99.6235 24.9888 101.452 25.5879 103.315C25.9003 104.284 26.1612 105.285 26.4135 106.309C26.6657 107.333 26.9323 108.368 27.1961 109.418C28.2166 113.355 29.0148 117.346 29.5869 121.373C30.0771 125.091 29.9681 123.603 29.7961 126.435" fill="#E0E0E0"/>
<path d="M25.7305 103.229C25.8119 103.076 25.8772 102.915 25.9254 102.748C26.0372 102.434 26.1863 101.973 26.364 101.401C26.7166 100.257 27.1495 98.667 27.6196 96.9081C28.0897 95.1492 28.5455 93.5648 28.9125 92.4322C29.0959 91.8602 29.2507 91.4055 29.3597 91.0909C29.4259 90.9307 29.475 90.7638 29.5059 90.5933C29.4125 90.7404 29.3365 90.8978 29.2794 91.0623C29.1447 91.3683 28.9698 91.8173 28.7691 92.3808C28.3592 93.5047 27.8805 95.0892 27.4075 96.8509L26.2149 101.358C26.0659 101.899 25.9283 102.356 25.8423 102.723C25.7864 102.887 25.7489 103.056 25.7305 103.229Z" fill="#E0E0E0"/>
<path d="M11.0596 98.0093C11.2507 98.0837 11.4484 98.1402 11.6501 98.178C12.0314 98.2724 12.5875 98.4097 13.2669 98.5984C14.6286 98.9674 16.489 99.5422 18.5158 100.269C20.5425 100.995 22.3485 101.733 23.6385 102.305C24.2864 102.591 24.8052 102.826 25.1636 102.991C25.3463 103.089 25.5383 103.169 25.7369 103.229C25.5696 103.109 25.3921 103.004 25.2066 102.914C24.8597 102.725 24.3466 102.462 23.7073 102.162C22.4316 101.553 20.6285 100.789 18.596 100.06C16.8627 99.4328 15.0983 98.8944 13.3099 98.4469C12.6248 98.2753 12.0629 98.1609 11.673 98.0922C11.4717 98.045 11.2663 98.0172 11.0596 98.0093Z" fill="#E0E0E0"/>
<path d="M29.6406 121.041C29.6406 121.041 29.6951 120.987 29.7754 120.872C29.8556 120.758 29.9818 120.569 30.1194 120.369C30.406 119.928 30.8332 119.279 31.3348 118.473C32.341 116.862 33.6597 114.592 35.0787 112.066C36.4977 109.541 37.7963 107.259 38.7681 105.628L39.9148 103.701L40.2272 103.172C40.296 103.051 40.3304 102.986 40.3218 102.98C40.271 103.031 40.2267 103.087 40.19 103.149C40.0954 103.286 39.9836 103.452 39.8431 103.652C39.5564 104.093 39.1322 104.739 38.6305 105.545C37.6243 107.158 36.3056 109.429 34.8838 111.958C33.4619 114.486 32.169 116.762 31.1972 118.393L30.0506 120.32L29.7381 120.849C29.6974 120.909 29.6646 120.973 29.6406 121.041Z" fill="#E0E0E0"/>
<path d="M10.5811 111.389C10.6375 111.435 10.7002 111.474 10.7674 111.503L11.3178 111.789L13.3589 112.827C15.0789 113.702 17.4467 114.941 20.0611 116.311C22.6755 117.681 25.052 118.902 26.7949 119.743C27.6549 120.163 28.3745 120.495 28.8675 120.715L29.4409 120.967C29.5057 120.999 29.574 121.024 29.6444 121.041C29.6444 121.041 29.5842 120.995 29.4581 120.927L28.9077 120.641L26.8666 119.605C25.1466 118.727 22.7787 117.489 20.1643 116.119C17.5499 114.749 15.1706 113.542 13.4277 112.684C12.5677 112.264 11.851 111.929 11.3551 111.709L10.7817 111.46C10.7183 111.428 10.6508 111.403 10.5811 111.389Z" fill="#E0E0E0"/>
<path d="M37.3698 40.6118H14.6543V62.8769H37.3698V40.6118Z" fill="#E0E0E0"/>
<path d="M36.5669 41.2212H15.4453V62.2937H36.5669V41.2212Z" fill="#FAFAFA"/>
<path d="M29.452 48.3228H22.5605V55.1982H29.452V48.3228Z" fill="#E0E0E0"/>
<path d="M196.842 126.378C196.842 126.418 156.838 126.452 107.503 126.452C58.1673 126.452 18.1572 126.412 18.1572 126.378C18.1572 126.343 58.153 126.303 107.503 126.303C156.852 126.303 196.842 126.335 196.842 126.378Z" fill="#263238"/>
<path d="M165.495 24.23H49.5044C48.5441 24.23 47.6232 24.6105 46.9442 25.288C46.2652 25.9654 45.8838 26.8841 45.8838 27.8422V109.575C45.8838 110.533 46.2652 111.452 46.9442 112.129C47.6232 112.807 48.5441 113.187 49.5044 113.187H94.0266C94.0266 113.187 96.8589 121.925 88.0811 126.444H129.705C129.705 126.444 119.795 123.054 122.344 113.187H165.495C166.456 113.187 167.377 112.807 168.056 112.129C168.735 111.452 169.116 110.533 169.116 109.575V27.8422C169.116 26.8841 168.735 25.9654 168.056 25.288C167.377 24.6105 166.456 24.23 165.495 24.23Z" fill="#455A64"/>
<path d="M109.048 104.593C110.627 106.841 108.156 109.306 105.895 107.739C105.82 107.687 105.755 107.622 105.702 107.548C104.129 105.297 106.594 102.837 108.856 104.402C108.93 104.454 108.995 104.519 109.048 104.593Z" fill="#263238"/>
<path d="M165.318 29.1294H49.4384C48.9207 29.1294 48.501 29.5481 48.501 30.0646V97.8781C48.501 98.3946 48.9207 98.8133 49.4384 98.8133H165.318C165.835 98.8133 166.255 98.3946 166.255 97.8781V30.0646C166.255 29.5481 165.835 29.1294 165.318 29.1294Z" fill="#FAFAFA"/>
<path d="M165.317 98.9562H49.441C49.1541 98.9562 48.8789 98.8427 48.6758 98.6406C48.4727 98.4385 48.3582 98.1642 48.3574 97.878V30.0645C48.3582 29.7783 48.4727 29.5041 48.6758 29.302C48.8789 29.0998 49.1541 28.9863 49.441 28.9863H165.317C165.604 28.9863 165.879 29.0999 166.082 29.3021C166.284 29.5043 166.398 29.7786 166.398 30.0645V97.878C166.398 98.164 166.284 98.4382 166.082 98.6404C165.879 98.8426 165.604 98.9562 165.317 98.9562ZM49.441 29.2723C49.2302 29.2723 49.0279 29.3557 48.8785 29.5042C48.7291 29.6527 48.6448 29.8542 48.6441 30.0645V97.878C48.6448 98.0884 48.7291 98.2899 48.8785 98.4384C49.0279 98.5869 49.2302 98.6702 49.441 98.6702H165.317C165.528 98.6702 165.73 98.5868 165.879 98.4382C166.028 98.2896 166.111 98.0881 166.111 97.878V30.0645C166.111 29.8544 166.028 29.6529 165.879 29.5044C165.73 29.3558 165.528 29.2723 165.317 29.2723H49.441Z" fill="white"/>
<path d="M58.1588 31.8205C58.16 32.0063 58.1058 32.1882 58.0032 32.3433C57.9005 32.4983 57.7541 32.6194 57.5824 32.6913C57.4107 32.7632 57.2214 32.7826 57.0387 32.747C56.8559 32.7115 56.6878 32.6226 56.5558 32.4916C56.4237 32.3606 56.3336 32.1935 56.2968 32.0114C56.2601 31.8293 56.2783 31.6404 56.3493 31.4686C56.4203 31.2969 56.5408 31.15 56.6956 31.0467C56.8503 30.9434 57.0324 30.8882 57.2186 30.8882C57.467 30.8882 57.7052 30.9862 57.8814 31.1609C58.0576 31.3356 58.1573 31.5727 58.1588 31.8205Z" fill="#455A64"/>
<path d="M52.4596 31.8204C52.4596 32.0059 52.4045 32.1873 52.3012 32.3416C52.1979 32.4958 52.051 32.6161 51.8792 32.6871C51.7074 32.7581 51.5183 32.7767 51.3359 32.7405C51.1535 32.7043 50.986 32.6149 50.8545 32.4837C50.723 32.3525 50.6334 32.1854 50.5972 32.0034C50.5609 31.8214 50.5795 31.6328 50.6507 31.4614C50.7218 31.29 50.8424 31.1435 50.997 31.0404C51.1516 30.9373 51.3334 30.8823 51.5194 30.8823C51.7687 30.8823 52.0079 30.9812 52.1842 31.1571C52.3606 31.333 52.4596 31.5716 52.4596 31.8204Z" fill="#455A64"/>
<path d="M55.195 31.8204C55.195 32.0059 55.1398 32.1873 55.0365 32.3416C54.9332 32.4958 54.7864 32.6161 54.6145 32.6871C54.4427 32.7581 54.2537 32.7767 54.0713 32.7405C53.8889 32.7043 53.7213 32.6149 53.5898 32.4837C53.4584 32.3525 53.3688 32.1854 53.3325 32.0034C53.2962 31.8214 53.3149 31.6328 53.386 31.4614C53.4572 31.29 53.5777 31.1435 53.7323 31.0404C53.887 30.9373 54.0688 30.8823 54.2547 30.8823C54.5041 30.8823 54.7433 30.9812 54.9196 31.1571C55.0959 31.333 55.195 31.5716 55.195 31.8204Z" fill="#455A64"/>
<path d="M166.341 34.6373C166.341 34.6774 139.939 34.7117 107.382 34.7117C74.8257 34.7117 48.418 34.6774 48.418 34.6373C48.418 34.5973 74.8114 34.563 107.382 34.563C139.954 34.563 166.341 34.6059 166.341 34.6373Z" fill="#263238"/>
<path d="M159.881 40.8836L138.607 40.9243L138.64 57.8927L159.914 57.8519L159.881 40.8836Z" fill="#F5F5F5"/>
<path d="M159.123 41.9543L139.343 41.9922L139.371 56.8241L159.151 56.7862L159.123 41.9543Z" fill="#EBEBEB"/>
<path d="M139.369 56.8341L146.261 47.6021L150.552 53.3649L153.447 50.2733L159.149 56.7998L139.369 56.8341Z" fill="#E0E0E0"/>
<path d="M152.354 46.4634C152.353 46.7705 152.261 47.0704 152.089 47.3254C151.918 47.5803 151.674 47.7788 151.39 47.8959C151.105 48.0131 150.792 48.0436 150.49 47.9836C150.188 47.9236 149.911 47.7758 149.693 47.5588C149.475 47.3419 149.327 47.0655 149.266 46.7644C149.205 46.4633 149.235 46.151 149.352 45.8669C149.469 45.5828 149.668 45.3396 149.923 45.1679C150.178 44.9961 150.478 44.9036 150.786 44.9019C150.992 44.9007 151.196 44.9403 151.387 45.0184C151.578 45.0964 151.751 45.2114 151.897 45.3565C152.042 45.5017 152.158 45.6743 152.236 45.8643C152.315 46.0543 152.355 46.2579 152.354 46.4634Z" fill="#E0E0E0"/>
<path d="M159.885 77.2141L138.611 77.2549L138.644 94.2232L159.917 94.1825L159.885 77.2141Z" fill="#F5F5F5"/>
<path d="M159.127 78.2849L139.347 78.3228L139.375 93.1547L159.155 93.1168L159.127 78.2849Z" fill="#EBEBEB"/>
<path d="M139.369 93.1647L146.261 83.9326L150.552 89.6927L153.447 86.6039L159.149 93.1275L139.369 93.1647Z" fill="#E0E0E0"/>
<path d="M152.354 82.7913C152.355 83.0993 152.265 83.4007 152.094 83.6573C151.924 83.9139 151.68 84.1142 151.396 84.2328C151.111 84.3515 150.797 84.3831 150.494 84.3237C150.191 84.2643 149.913 84.1166 149.694 83.8992C149.475 83.6819 149.326 83.4047 149.266 83.1027C149.205 82.8007 149.236 82.4876 149.354 82.203C149.471 81.9184 149.671 81.675 149.928 81.5038C150.184 81.3326 150.486 81.2412 150.795 81.2412C150.999 81.2408 151.202 81.2806 151.391 81.3583C151.58 81.436 151.752 81.5501 151.896 81.694C152.041 81.838 152.156 82.009 152.235 82.1973C152.313 82.3855 152.354 82.5874 152.354 82.7913Z" fill="#E0E0E0"/>
<path d="M74.5919 40.8894L53.3184 40.9302L53.351 57.8985L74.6245 57.8578L74.5919 40.8894Z" fill="#F5F5F5"/>
<path d="M73.8347 41.9606L54.0547 41.9985L54.0832 56.8305L73.8632 56.7926L73.8347 41.9606Z" fill="#EBEBEB"/>
<path d="M54.0771 56.8341L60.9686 47.6021L65.26 53.3649L68.1553 50.2733L73.8572 56.7998L54.0771 56.8341Z" fill="#E0E0E0"/>
<path d="M67.0624 46.4634C67.0607 46.7701 66.968 47.0694 66.7961 47.3236C66.6241 47.5778 66.3806 47.7755 66.0962 47.8918C65.8118 48.0081 65.4992 48.0378 65.1979 47.9771C64.8966 47.9165 64.6201 47.7682 64.4031 47.5509C64.1862 47.3337 64.0385 47.0572 63.9789 46.7564C63.9192 46.4556 63.9501 46.1439 64.0677 45.8606C64.1853 45.5772 64.3844 45.335 64.6398 45.1644C64.8952 44.9938 65.1956 44.9024 65.5029 44.9019C65.7083 44.9015 65.9117 44.9417 66.1015 45.0201C66.2912 45.0985 66.4636 45.2136 66.6085 45.3587C66.7535 45.5039 66.8682 45.6762 66.9461 45.8658C67.024 46.0554 67.0635 46.2585 67.0624 46.4634Z" fill="#E0E0E0"/>
<path d="M74.5958 59.179L53.3223 59.2197L53.3549 76.1881L74.6284 76.1473L74.5958 59.179Z" fill="#F5F5F5"/>
<path d="M73.8376 60.2473L54.0576 60.2852L54.0862 75.1171L73.8661 75.0792L73.8376 60.2473Z" fill="#EBEBEB"/>
<path d="M54.0771 75.1236L60.9686 65.8887L65.26 71.6516L68.1553 68.5628L73.8572 75.0864L54.0771 75.1236Z" fill="#E0E0E0"/>
<path d="M67.0624 64.7505C67.0641 65.0578 66.9743 65.3588 66.8045 65.6153C66.6346 65.8717 66.3922 66.0721 66.1081 66.191C65.824 66.31 65.5109 66.3421 65.2085 66.2834C64.906 66.2247 64.6279 66.0778 64.4092 65.8612C64.1905 65.6446 64.0412 65.3682 63.9801 65.0669C63.919 64.7656 63.9489 64.453 64.0661 64.1687C64.1832 63.8844 64.3822 63.6411 64.638 63.4698C64.8938 63.2984 65.1948 63.2066 65.5029 63.2061C65.9148 63.2053 66.3101 63.3674 66.6024 63.6569C66.8947 63.9463 67.0601 64.3396 67.0624 64.7505Z" fill="#E0E0E0"/>
<path d="M74.5967 77.6292L53.3232 77.6699L53.3559 94.6383L74.6294 94.5975L74.5967 77.6292Z" fill="#F5F5F5"/>
<path d="M73.8386 78.6999L54.0586 78.7378L54.0871 93.5697L73.8671 93.5318L73.8386 78.6999Z" fill="#EBEBEB"/>
<path d="M54.0771 93.5734L60.9686 84.3413L65.26 90.1014L68.1553 87.0125L73.8572 93.5391L54.0771 93.5734Z" fill="#E0E0E0"/>
<path d="M67.0624 83.2005C67.063 83.5077 66.9722 83.8081 66.8017 84.0638C66.6311 84.3195 66.3884 84.519 66.1042 84.637C65.8199 84.7551 65.507 84.7864 65.205 84.7271C64.9029 84.6677 64.6253 84.5203 64.4072 84.3035C64.1891 84.0867 64.0403 83.8103 63.9797 83.5091C63.9191 83.208 63.9493 82.8957 64.0666 82.6117C64.1839 82.3277 64.383 82.0848 64.6386 81.9137C64.8943 81.7426 65.1951 81.651 65.5029 81.6504C65.9156 81.6504 66.3113 81.8135 66.6036 82.1041C66.8959 82.3946 67.0609 82.7889 67.0624 83.2005Z" fill="#E0E0E0"/>
<path d="M163.071 57.5801C162.399 57.4796 161.714 57.5429 161.072 57.7645C160.431 57.9862 159.852 58.3596 159.387 58.8528C157.888 60.3543 151.647 65.8369 151.647 65.8369L142.594 64.0294L141.327 68.0677C141.327 68.0677 152.02 71.3853 152.794 71.0993C153.568 70.8133 159.387 66.898 159.387 66.898L163.071 57.5801Z" fill="#761B7B"/>
<path d="M153.964 43.6744L110.381 49.5767L115.11 84.3386L158.694 78.4364L153.964 43.6744Z" fill="#EBEBEB"/>
<path d="M153.966 43.6609L153.757 43.6924L153.149 43.781L150.787 44.1099L141.872 45.3369L110.396 49.6269L110.462 49.5411C111.872 59.8886 113.492 71.749 115.203 84.2987L115.108 84.2272L158.682 78.3356L158.622 78.4156L155.23 53.1962C154.826 50.1588 154.508 47.7765 154.29 46.152C154.184 45.3397 154.101 44.722 154.046 44.293C153.992 43.864 153.966 43.6523 153.966 43.6523C153.966 43.6523 154 43.8611 154.058 44.2758C154.115 44.6905 154.204 45.314 154.319 46.1177C154.542 47.7393 154.872 50.1217 155.293 53.1418C156.128 59.2193 157.326 67.9137 158.768 78.4042V78.4757H158.696L115.123 84.3959H115.037V84.3101C113.331 71.7576 111.72 59.8971 110.312 49.5497V49.4753H110.387L141.92 45.2425L150.824 44.0556L153.175 43.7467L153.777 43.6695L153.966 43.6609Z" fill="#263238"/>
<path d="M152.34 46.7256L111.855 52.0293L115.851 82.3876L156.335 77.0838L152.34 46.7256Z" fill="#761B7B"/>
<path d="M116.321 81.936L127.903 61.1323L138.277 71.7601L143.363 64.6358L156.842 76.4448L116.321 81.936Z" fill="#761B7B"/>
<path d="M140.074 57.1254C140.16 57.755 140.056 58.3957 139.777 58.9666C139.498 59.5374 139.055 60.0128 138.504 60.3325C137.954 60.6522 137.321 60.8019 136.685 60.7627C136.05 60.7234 135.44 60.497 134.934 60.112C134.427 59.7271 134.046 59.2009 133.84 58.6C133.633 57.9991 133.609 57.3505 133.772 56.7363C133.935 56.1221 134.276 55.5698 134.754 55.1493C135.231 54.7288 135.823 54.459 136.454 54.3741C137.3 54.2602 138.156 54.4861 138.835 55.002C139.514 55.5179 139.96 56.2817 140.074 57.1254Z" fill="#761B7B"/>
<g opacity="0.2">
<path d="M116.321 81.936L127.903 61.1323L138.277 71.7601L143.363 64.6358L156.842 76.4448L116.321 81.936Z" fill="black"/>
</g>
<g opacity="0.2">
<path d="M140.074 57.1254C140.16 57.755 140.056 58.3957 139.777 58.9666C139.498 59.5374 139.055 60.0128 138.504 60.3325C137.954 60.6522 137.321 60.8019 136.685 60.7627C136.05 60.7234 135.44 60.497 134.934 60.112C134.427 59.7271 134.046 59.2009 133.84 58.6C133.633 57.9991 133.609 57.3505 133.772 56.7363C133.935 56.1221 134.276 55.5698 134.754 55.1493C135.231 54.7288 135.823 54.459 136.454 54.3741C137.3 54.2602 138.156 54.4861 138.835 55.002C139.514 55.5179 139.96 56.2817 140.074 57.1254Z" fill="black"/>
</g>
<path d="M173.359 62.0875C173.772 59.2589 172.456 58.3695 170.389 57.5115C167.809 56.4447 162.89 56.9766 161.216 58.4696L159.324 64.0637C158.53 64.9875 158.656 66.3975 159.115 67.5272C159.573 68.6569 160.313 69.6693 160.654 70.8362C161.316 73.0985 160.852 75.0976 160.694 77.4457C160.66 77.9891 160.241 78.9901 160.643 79.3561C161.044 79.7222 161.569 79.7051 162.076 79.685C166.031 79.5237 169.909 78.545 173.465 76.8107C172.115 74.0937 170.627 70.9477 171.496 68.8657C172.393 66.6909 173.018 64.4144 173.359 62.0875Z" fill="#761B7B"/>
<path d="M155.505 67.8737L154.227 72.2152C154.227 72.2152 160.903 74.6376 164.518 74.5947C167.906 74.5518 168.875 74.1685 170.068 71.4487C171.26 68.7288 172.613 65.5828 172.897 63.7782C173.1 63.1795 173.244 62.5627 173.327 61.9363C173.823 58.2326 169.314 57.2574 168.646 60.9353L168.107 62.9059C168.107 62.9059 166.877 65.6801 166.82 65.8345C166.275 67.2645 165.332 69.5782 164.65 69.8385C163.967 70.0988 155.505 67.8737 155.505 67.8737Z" fill="#761B7B"/>
<path d="M171.809 68.0679C171.801 68.1032 171.789 68.1377 171.774 68.1708L171.657 68.4568C171.554 68.7171 171.393 69.0975 171.161 69.5779C170.886 70.1694 170.572 70.7426 170.223 71.2939C169.766 72.0269 169.218 72.6995 168.592 73.2959C168.41 73.4638 168.219 73.6214 168.019 73.7678C167.807 73.9163 167.588 74.0538 167.362 74.1797L166.998 74.3456L166.812 74.4256L166.614 74.48L166.213 74.5915L165.792 74.643C164.588 74.7096 163.381 74.6241 162.2 74.3885C159.488 73.8774 156.814 73.1798 154.199 72.3007L154.133 72.2778L154.153 72.2091L154.313 71.66L155.429 67.8677L155.449 67.799L155.517 67.8162C157.96 68.4682 160.27 69.0374 162.372 69.4206C162.899 69.5121 163.412 69.5922 163.911 69.6323C164.154 69.6566 164.399 69.6566 164.642 69.6323C164.698 69.6254 164.753 69.6119 164.805 69.5922C164.853 69.5751 164.895 69.543 164.923 69.5007C164.993 69.4105 165.057 69.3148 165.112 69.2147C165.582 68.4053 165.943 67.6074 166.285 66.8924C166.955 65.4624 167.469 64.2926 167.827 63.4947C168.002 63.1029 168.139 62.794 168.237 62.5795C168.28 62.4794 168.317 62.4022 168.343 62.3421C168.369 62.2821 168.383 62.2621 168.386 62.2649C168.389 62.2678 168.386 62.2935 168.357 62.3479C168.329 62.4022 168.3 62.488 168.26 62.5881L167.878 63.4919C167.537 64.2984 167.036 65.4652 166.376 66.9095C166.041 67.6303 165.688 68.4254 165.23 69.249C165.17 69.3557 165.103 69.458 165.029 69.555C164.987 69.611 164.93 69.6545 164.866 69.6809C164.805 69.7042 164.741 69.7196 164.676 69.7267C164.425 69.7538 164.171 69.7538 163.92 69.7267C163.412 69.6895 162.896 69.6094 162.369 69.5207C160.256 69.1461 157.945 68.5827 155.489 67.9334L155.578 67.882L154.465 71.6772L154.305 72.2263L154.256 72.1348C156.864 73.0125 159.528 73.7119 162.231 74.2283C163.401 74.4656 164.596 74.5549 165.789 74.4943L166.199 74.4485L166.588 74.3427L166.781 74.2912L166.964 74.2111L167.319 74.0538C167.541 73.9324 167.755 73.7987 167.962 73.6534C168.161 73.5119 168.353 73.3591 168.535 73.1958C169.158 72.6106 169.705 71.9496 170.163 71.2282C170.516 70.6871 170.835 70.1256 171.121 69.5465C171.361 69.0717 171.528 68.6885 171.642 68.4368L171.771 68.1508C171.781 68.1218 171.793 68.0939 171.809 68.0679Z" fill="#263238"/>
<path d="M160.327 63.0088C160.19 63.2817 160.034 63.5454 159.863 63.7982C159.464 64.4074 159.186 65.0869 159.043 65.8002C158.953 66.522 159.075 67.2543 159.395 67.908C159.532 68.1811 159.652 68.4618 159.756 68.7488C159.701 68.687 159.655 68.6177 159.619 68.5429C159.503 68.3512 159.396 68.1536 159.301 67.9509C159.152 67.6512 159.034 67.3368 158.951 67.0128C158.847 66.6092 158.828 66.1887 158.894 65.7773C159.04 65.0442 159.34 64.3503 159.774 63.7409C159.935 63.4801 160.12 63.2349 160.327 63.0088Z" fill="#263238"/>
<g opacity="0.2">
<path d="M160.918 74.0741C160.912 74.3221 160.961 74.5684 161.06 74.7961C161.159 75.0237 161.306 75.2272 161.491 75.3925C161.865 75.7216 162.311 75.9578 162.793 76.0818C163.545 76.294 164.332 76.3494 165.107 76.2446C165.881 76.1398 166.625 75.877 167.293 75.4726C168.624 74.6632 169.529 73.1846 169.896 71.6831C169.896 71.6831 169.056 72.7384 168.503 73.2876C167.812 73.9831 166.9 74.4169 165.923 74.5145C164.24 74.7519 162.538 74.4115 160.875 74.0712" fill="black"/>
</g>
<path d="M160.399 58.9473C160.559 59.0106 160.714 59.0851 160.863 59.1703L162.036 59.7824L162.142 59.8396L162.039 59.9054C161.786 60.0684 161.514 60.2486 161.227 60.4316C160.941 60.6146 160.711 60.7634 160.474 60.9121L160.365 60.9836V60.8577C160.365 60.3 160.365 59.8224 160.365 59.4849C160.355 59.305 160.367 59.1245 160.399 58.9473C160.435 59.1242 160.454 59.3043 160.453 59.4849C160.471 59.8224 160.488 60.2972 160.505 60.8549L160.393 60.7977L161.147 60.3086C161.434 60.1227 161.721 59.9483 161.967 59.7852V59.9054C161.03 59.3848 160.373 58.9844 160.399 58.9473Z" fill="#FAFAFA"/>
<path d="M157.211 61.7759C157.371 61.8407 157.526 61.9152 157.676 61.999L158.848 62.6139L158.952 62.6682L158.851 62.734L158.04 63.2631L157.286 63.7436L157.177 63.8122V63.6864C157.177 63.1315 157.177 62.6539 157.177 62.3164C157.168 62.1355 157.179 61.9541 157.211 61.7759C157.247 61.9528 157.265 62.133 157.263 62.3136C157.283 62.651 157.3 63.1287 157.318 63.6835L157.206 63.6263L157.96 63.1372L158.78 62.6139V62.7368C157.842 62.2163 157.186 61.8188 157.211 61.7759Z" fill="#FAFAFA"/>
<path d="M165.74 62.7456C165.738 62.5733 165.749 62.4012 165.774 62.2308C165.812 61.8618 165.858 61.4185 165.909 60.918V60.8008L166.009 60.8723L166.801 61.4271L167.529 61.9448L167.635 62.022L167.517 62.0706C167.001 62.2823 166.557 62.4596 166.242 62.5797C166.078 62.6559 165.906 62.7116 165.729 62.7456C165.878 62.6451 166.039 62.5617 166.207 62.4968C166.514 62.3538 166.95 62.1593 167.463 61.9248V62.0506L166.726 61.5329C166.439 61.3356 166.184 61.144 165.935 60.9609L166.047 60.9123C165.912 61.9991 165.783 62.7542 165.74 62.7456Z" fill="#FAFAFA"/>
<path d="M160.109 66.089C160.208 65.9487 160.317 65.8158 160.436 65.6915L161.31 64.6991L161.391 64.6133L161.431 64.7277C161.531 65.0137 161.64 65.3168 161.752 65.6372L162.039 66.4952L162.079 66.6181L161.955 66.5867C161.414 66.4608 160.949 66.3464 160.622 66.2606C160.445 66.2277 160.272 66.174 160.106 66.1005C160.286 66.1074 160.465 66.1323 160.64 66.1748C160.975 66.2378 161.442 66.3321 161.987 66.4608L161.907 66.5552C161.812 66.2892 161.712 66.0061 161.62 65.6972C161.528 65.3883 161.402 65.068 161.305 64.7792L161.422 64.8049C160.683 65.58 160.141 66.1205 160.109 66.089Z" fill="#FAFAFA"/>
<path d="M164.51 66.5381C164.511 66.3659 164.522 66.194 164.544 66.0233C164.581 65.6515 164.627 65.2082 164.679 64.7105V64.5933L164.779 64.6619L165.573 65.2167L166.298 65.7373L166.404 65.8116L166.287 65.8602C165.774 66.0719 165.329 66.2492 165.011 66.3693C164.847 66.4442 164.675 66.5008 164.498 66.5381C164.648 66.437 164.808 66.3535 164.977 66.2892C165.284 66.1462 165.722 65.9518 166.232 65.7315V65.8545L165.496 65.3369L164.707 64.7649L164.819 64.7162C164.682 65.7802 164.547 66.5438 164.51 66.5381Z" fill="#FAFAFA"/>
<path d="M162.944 69.2119C162.945 69.0398 162.957 68.8679 162.978 68.6971C163.019 68.3281 163.064 67.8849 163.113 67.3844V67.2671L163.211 67.3386L164.005 67.8906L164.733 68.4111L164.839 68.4883L164.721 68.5369C164.205 68.7486 163.761 68.923 163.443 69.0432C163.279 69.1201 163.107 69.1768 162.93 69.2119C163.08 69.1122 163.24 69.0288 163.408 68.9631C163.718 68.8201 164.154 68.6256 164.664 68.4054V68.5284L163.93 68.0136L163.139 67.4416L163.251 67.3929C163.113 68.4683 162.99 69.2119 162.944 69.2119Z" fill="#FAFAFA"/>
<path d="M166.195 78.2212C166.193 78.049 166.203 77.8769 166.227 77.7064C166.267 77.3346 166.313 76.8941 166.364 76.3936V76.2764L166.465 76.345L167.256 76.8998L167.987 77.4204L168.093 77.4947L167.975 77.5433C167.459 77.755 167.015 77.9323 166.7 78.0524C166.535 78.1268 166.363 78.1834 166.187 78.2212C166.336 78.1199 166.497 78.0364 166.665 77.9723C166.972 77.8293 167.408 77.6349 167.921 77.4146V77.5376L167.184 77.0228L166.393 76.4508L166.505 76.4051C166.364 77.4747 166.238 78.2297 166.195 78.2212Z" fill="#FAFAFA"/>
<path d="M169.019 60.4287C169.019 60.2565 169.03 60.0845 169.054 59.9139C169.091 59.5421 169.137 59.0988 169.188 58.6011V58.4839L169.289 58.5525L170.08 59.1074L170.808 59.6279L170.914 59.7022L170.797 59.7509C170.283 59.9625 169.839 60.1398 169.521 60.2599C169.356 60.3344 169.184 60.3909 169.008 60.4287C169.156 60.3263 169.317 60.2427 169.487 60.1799C169.793 60.0369 170.232 59.8424 170.742 59.6079V59.7337L169.994 59.2275L169.206 58.6555L169.317 58.6069C169.191 59.6794 169.065 60.4344 169.019 60.4287Z" fill="#FAFAFA"/>
<path d="M161.967 63.5834C161.964 63.4112 161.976 63.239 162.001 63.0686C162.038 62.6968 162.084 62.2535 162.136 61.753V61.6357L162.236 61.7072L163.027 62.2621L163.755 62.7826L163.861 62.857L163.744 62.9056C163.228 63.1172 162.784 63.2945 162.468 63.4147C162.304 63.4891 162.132 63.5456 161.955 63.5834C162.104 63.4807 162.265 63.3962 162.434 63.3317C162.741 63.1887 163.176 62.9971 163.689 62.774V62.8999L162.953 62.3822L162.161 61.8102L162.273 61.7616C162.147 62.8341 162.018 63.5891 161.967 63.5834Z" fill="#FAFAFA"/>
<path d="M162.374 77.4775C162.375 77.3054 162.387 77.1335 162.408 76.9627C162.445 76.5938 162.491 76.1505 162.543 75.65V75.5327L162.643 75.6042L163.437 76.1591L164.163 76.6767L164.269 76.7539L164.151 76.8026C163.638 77.0142 163.194 77.1887 162.875 77.3088C162.712 77.3869 162.54 77.4437 162.362 77.4775C162.513 77.3778 162.673 77.2944 162.841 77.2287C163.148 77.0857 163.586 76.8912 164.097 76.671V76.794L163.36 76.2792L162.572 75.7072L162.683 75.6586C162.54 76.7311 162.42 77.4861 162.374 77.4775Z" fill="#FAFAFA"/>
<path d="M169.922 65.8627C169.923 65.6906 169.934 65.5187 169.956 65.3479C169.993 64.9761 170.039 64.5328 170.091 64.0352V63.915L170.188 63.9865L170.982 64.5414L171.71 65.0619L171.814 65.1363L171.699 65.1849C171.183 65.3965 170.739 65.5738 170.42 65.694C170.256 65.7688 170.084 65.8254 169.907 65.8627C170.056 65.7599 170.217 65.6754 170.386 65.611C170.696 65.4709 171.131 65.2764 171.642 65.0533V65.1792L170.908 64.6615L170.116 64.0895L170.228 64.0409C170.094 65.1134 169.967 65.8684 169.922 65.8627Z" fill="#FAFAFA"/>
<path d="M166.654 72.3379C166.652 72.1656 166.663 71.9935 166.688 71.8231C166.726 71.4513 166.772 71.008 166.823 70.5103V70.3931L166.924 70.4617L167.715 71.0165L168.443 71.5371L168.549 71.6114L168.431 71.66C167.915 71.8717 167.471 72.049 167.156 72.1691C166.991 72.2435 166.819 72.3001 166.643 72.3379C166.793 72.2382 166.953 72.1548 167.121 72.089C167.428 71.946 167.864 71.7516 168.377 71.5313V71.6543L167.64 71.1395L166.849 70.5675L166.961 70.5189C166.84 71.5914 166.697 72.3579 166.654 72.3379Z" fill="#FAFAFA"/>
<path d="M169.383 75.3383C169.38 75.1652 169.391 74.9921 169.414 74.8206C169.454 74.4517 169.5 74.0084 169.552 73.5079V73.3906L169.652 73.4621L170.443 74.017C170.698 74.1971 170.942 74.3745 171.171 74.5346L171.277 74.6119L171.16 74.6605C170.644 74.8721 170.2 75.0494 169.884 75.1695C169.72 75.244 169.548 75.3005 169.371 75.3383C169.519 75.2339 169.68 75.1493 169.85 75.0866C170.157 74.9436 170.592 74.7491 171.105 74.5146V74.6405L170.369 74.1228L169.577 73.5508L169.689 73.5022C169.552 74.589 169.42 75.344 169.383 75.3383Z" fill="#FAFAFA"/>
<path d="M167.514 69.0459C167.514 68.8737 167.525 68.7017 167.549 68.5311C167.586 68.1593 167.632 67.716 167.684 67.2183V67.1011L167.784 67.1697L168.575 67.7246L169.303 68.2451L169.409 68.3194L169.292 68.3681C168.779 68.5797 168.334 68.757 168.016 68.8771C167.852 68.9515 167.68 69.0081 167.503 69.0459C167.652 68.9435 167.812 68.8599 167.982 68.7971C168.288 68.6541 168.727 68.4596 169.237 68.2251V68.348L168.501 67.8304L167.712 67.2584L167.824 67.2098C167.701 68.2994 167.56 69.0516 167.514 69.0459Z" fill="#FAFAFA"/>
<path d="M158.77 72.9013C158.768 72.7291 158.779 72.557 158.805 72.3865C158.842 72.0147 158.888 71.5743 158.939 71.0738V70.9565L159.04 71.0252L159.831 71.58L160.559 72.1005L160.665 72.1749L160.548 72.2235C160.032 72.4352 159.587 72.6125 159.272 72.7326C159.107 72.807 158.935 72.8636 158.759 72.9013C158.909 72.8017 159.07 72.7183 159.238 72.6525C159.544 72.5095 159.98 72.315 160.493 72.0948V72.2178L159.756 71.703L158.965 71.131L159.077 71.0852C158.942 72.1549 158.813 72.9099 158.77 72.9013Z" fill="#FAFAFA"/>
<path d="M163.079 71.9946C163.08 71.8225 163.092 71.6506 163.113 71.4798C163.153 71.1109 163.199 70.6676 163.248 70.1671V70.0498L163.348 70.1213L164.139 70.6761L164.868 71.1938L164.974 71.271L164.856 71.3196C164.34 71.5313 163.896 71.7057 163.578 71.8259C163.414 71.9028 163.242 71.9595 163.064 71.9946C163.215 71.8949 163.375 71.8115 163.543 71.7458C163.853 71.6028 164.289 71.4083 164.802 71.1738L164.787 71.2968L164.053 70.782L163.262 70.21L163.374 70.1613C163.251 71.2481 163.113 72.0032 163.079 71.9946Z" fill="#FAFAFA"/>
<path d="M155.58 70.9707C155.581 70.7986 155.593 70.6267 155.614 70.4559C155.652 70.0869 155.697 69.6436 155.749 69.1431V69.0259L155.849 69.0974L156.64 69.6494L157.369 70.1699L157.475 70.2471L157.357 70.2957C156.844 70.5074 156.4 70.6818 156.081 70.8019C155.918 70.8784 155.746 70.9351 155.568 70.9707C155.719 70.871 155.879 70.7876 156.047 70.7219C156.354 70.5789 156.792 70.3844 157.303 70.1642V70.2871L156.566 69.7723L155.778 69.2003L155.889 69.1517C155.752 70.2242 155.626 70.9793 155.58 70.9707Z" fill="#FAFAFA"/>
<path d="M172.485 62.6709C172.315 62.6421 172.149 62.599 171.986 62.5422L170.716 62.1676L170.604 62.1333L170.69 62.0503L171.384 61.3754L172.029 60.7576L172.124 60.6689L172.15 60.7919C172.264 61.3382 172.356 61.8044 172.416 62.139C172.459 62.3131 172.482 62.4916 172.485 62.6709C172.415 62.5055 172.363 62.3329 172.33 62.1561C172.244 61.8301 172.135 61.3639 172.012 60.8234L172.132 60.8577C171.929 61.0522 171.714 61.2638 171.487 61.484L170.785 62.1533L170.759 62.036C171.783 62.3649 172.502 62.6338 172.485 62.6709Z" fill="#FAFAFA"/>
<path d="M145.251 122.911L146.51 120.483L151.096 122.805L149.293 126.377L149.006 126.252C147.708 125.68 142.448 123.257 141.734 122.574C140.92 121.81 145.251 122.911 145.251 122.911Z" fill="#761B7B"/>
<g opacity="0.5">
<path d="M147.634 125.5C147.897 125.148 148.281 124.907 148.712 124.822C149.136 124.737 149.578 124.812 149.95 125.033L149.302 126.309L147.634 125.5Z" fill="white"/>
</g>
<g opacity="0.4">
<path d="M143.101 122.442C143.101 122.442 141.539 122.142 141.596 122.442C141.654 122.742 146.874 125.402 149.282 126.369L149.325 126.263L143.207 123.226C143.207 123.226 143.362 122.588 143.101 122.442Z" fill="white"/>
</g>
<path d="M149.4 126.306L149.316 126.275L149.084 126.172L148.224 125.786C147.51 125.457 146.527 124.985 145.455 124.444C144.383 123.904 143.423 123.386 142.732 123.014L141.918 122.56L141.7 122.431C141.648 122.402 141.622 122.385 141.625 122.382L141.705 122.42L141.929 122.54L142.76 122.98C143.457 123.349 144.42 123.855 145.492 124.41C146.564 124.965 147.542 125.428 148.253 125.771L149.093 126.175L149.322 126.286C149.349 126.29 149.375 126.297 149.4 126.306Z" fill="#263238"/>
<path d="M143.173 123.306C143.205 123.15 143.22 122.99 143.219 122.831C143.195 122.673 143.154 122.519 143.096 122.371C143.213 122.493 143.278 122.656 143.279 122.825C143.304 122.993 143.266 123.164 143.173 123.306Z" fill="#263238"/>
<path d="M144.87 123.306C144.853 123.306 144.827 123.197 144.815 123.057C144.795 122.975 144.795 122.888 144.815 122.806C144.833 122.806 144.858 122.914 144.87 123.052C144.891 123.135 144.891 123.223 144.87 123.306Z" fill="#263238"/>
<path d="M145.34 123.3C145.323 123.3 145.277 123.22 145.234 123.108C145.191 122.997 145.168 122.905 145.185 122.9C145.203 122.894 145.248 122.977 145.291 123.088C145.326 123.153 145.343 123.226 145.34 123.3Z" fill="#263238"/>
<path d="M145.793 122.98C145.793 122.997 145.673 122.957 145.538 122.891C145.453 122.859 145.376 122.809 145.312 122.745C145.312 122.728 145.435 122.768 145.567 122.834C145.699 122.9 145.802 122.98 145.793 122.98Z" fill="#263238"/>
<path d="M146.029 122.722C145.923 122.736 145.815 122.716 145.722 122.665C145.621 122.634 145.532 122.574 145.467 122.491C145.566 122.521 145.662 122.56 145.753 122.608C145.848 122.639 145.94 122.677 146.029 122.722Z" fill="#263238"/>
<path d="M144.918 122.831C144.815 122.797 144.718 122.746 144.632 122.68C144.53 122.612 144.434 122.535 144.345 122.451C144.293 122.402 144.246 122.347 144.205 122.288C144.18 122.25 144.17 122.204 144.179 122.159C144.184 122.135 144.197 122.113 144.215 122.096C144.234 122.079 144.257 122.068 144.282 122.065C144.422 122.067 144.557 122.118 144.664 122.208C144.771 122.298 144.844 122.422 144.87 122.56C144.888 122.64 144.888 122.723 144.87 122.803C144.866 122.834 144.855 122.863 144.838 122.889C144.858 122.783 144.858 122.674 144.838 122.568C144.811 122.459 144.752 122.359 144.669 122.282C144.574 122.186 144.444 122.13 144.308 122.128C144.242 122.128 144.233 122.202 144.268 122.259C144.306 122.315 144.35 122.367 144.4 122.414C144.48 122.498 144.568 122.575 144.66 122.646C144.81 122.763 144.921 122.82 144.918 122.831Z" fill="#263238"/>
<path d="M144.833 122.806C144.828 122.726 144.853 122.647 144.904 122.585C144.953 122.514 145.018 122.454 145.093 122.411C145.141 122.38 145.195 122.362 145.251 122.357C145.307 122.353 145.363 122.362 145.415 122.385C145.441 122.407 145.458 122.438 145.462 122.473C145.466 122.507 145.456 122.541 145.435 122.568C145.404 122.611 145.365 122.647 145.32 122.674C145.249 122.719 145.171 122.755 145.091 122.78C145.018 122.808 144.939 122.82 144.861 122.814C144.861 122.814 144.947 122.791 145.073 122.74C145.149 122.709 145.221 122.671 145.288 122.625C145.36 122.582 145.443 122.485 145.377 122.437C145.335 122.42 145.29 122.414 145.245 122.419C145.2 122.423 145.157 122.438 145.119 122.462C145.049 122.499 144.988 122.55 144.939 122.611C144.898 122.673 144.863 122.738 144.833 122.806Z" fill="#263238"/>
<path d="M149.941 125.008C149.941 125.008 149.818 124.93 149.597 124.85C149.312 124.744 149.004 124.719 148.706 124.779C148.409 124.843 148.136 124.986 147.914 125.193C147.745 125.354 147.671 125.479 147.662 125.479C147.672 125.446 147.687 125.415 147.708 125.388C147.758 125.308 147.817 125.233 147.883 125.165C148.102 124.942 148.382 124.788 148.689 124.725C148.995 124.662 149.313 124.692 149.603 124.81C149.69 124.848 149.773 124.893 149.852 124.945C149.927 124.982 149.944 125.005 149.941 125.008Z" fill="#263238"/>
<path d="M150.435 122.868C150.309 123.196 150.164 123.516 149.999 123.826C149.853 124.146 149.688 124.457 149.503 124.756C149.631 124.429 149.778 124.109 149.942 123.798C150.088 123.479 150.253 123.169 150.435 122.868Z" fill="#263238"/>
<path d="M147.293 124.762C147.047 124.699 146.81 124.603 146.59 124.476C146.361 124.371 146.146 124.239 145.948 124.084C145.948 124.067 146.249 124.238 146.619 124.418C146.989 124.599 147.298 124.744 147.293 124.762Z" fill="#263238"/>
<path d="M148.19 125.216C148.19 125.233 148.132 125.265 148.066 125.319C148.001 125.374 147.955 125.425 147.94 125.416C147.926 125.408 147.94 125.331 148.029 125.271C148.118 125.211 148.187 125.199 148.19 125.216Z" fill="#263238"/>
<path d="M148.74 124.982C148.74 124.999 148.694 125.03 148.622 125.053C148.551 125.076 148.488 125.085 148.482 125.067C148.476 125.05 148.531 125.019 148.602 124.996C148.674 124.973 148.737 124.95 148.74 124.982Z" fill="#263238"/>
<path d="M149.322 125.022C149.322 125.022 149.25 125.002 149.173 124.994C149.096 124.985 149.027 124.994 149.018 124.976C149.01 124.959 149.084 124.916 149.182 124.931C149.279 124.945 149.334 125.008 149.322 125.022Z" fill="#263238"/>
<path d="M149.713 125.105C149.713 125.123 149.673 125.131 149.63 125.128C149.586 125.125 149.546 125.105 149.549 125.088C149.552 125.071 149.589 125.062 149.635 125.065C149.681 125.068 149.716 125.088 149.713 125.105Z" fill="#263238"/>
<path d="M175.277 123.884L174.187 121.375L178.88 119.311L180.514 122.96L180.227 123.109C178.963 123.749 173.757 126.283 172.774 126.403C171.685 126.538 175.277 123.884 175.277 123.884Z" fill="#761B7B"/>
<g opacity="0.5">
<path d="M178.797 123.675C178.692 123.248 178.748 122.798 178.955 122.411C179.156 122.028 179.494 121.734 179.901 121.587L180.474 122.897L178.797 123.675Z" fill="white"/>
</g>
<g opacity="0.4">
<path d="M173.554 125.251C173.554 125.251 172.333 126.269 172.608 126.421C172.883 126.572 178.244 124.21 180.517 122.96L180.462 122.86L174.236 125.671C174.236 125.671 173.832 125.142 173.554 125.251Z" fill="white"/>
</g>
<path d="M180.534 122.826L180.457 122.869L180.233 122.986L179.396 123.398C178.685 123.741 177.699 124.204 176.601 124.69C175.503 125.177 174.494 125.594 173.763 125.886L172.903 126.229L172.665 126.318L172.582 126.343C172.606 126.327 172.632 126.314 172.659 126.303L172.894 126.206L173.754 125.846C174.483 125.543 175.474 125.119 176.584 124.633C177.693 124.147 178.671 123.692 179.385 123.358L180.23 122.963L180.46 122.857L180.534 122.826Z" fill="#263238"/>
<path d="M174.268 125.743C174.168 125.618 174.055 125.505 173.93 125.405C173.792 125.324 173.646 125.258 173.494 125.208C173.663 125.199 173.83 125.251 173.964 125.354C174.111 125.441 174.219 125.58 174.268 125.743Z" fill="#263238"/>
<path d="M175.343 124.43C175.343 124.444 175.231 124.393 175.116 124.316C175.002 124.239 174.913 124.164 174.921 124.15C174.93 124.136 175.033 124.187 175.151 124.264C175.268 124.341 175.351 124.41 175.343 124.43Z" fill="#263238"/>
<path d="M175.635 124.061C175.635 124.078 175.532 124.061 175.42 124.024C175.308 123.986 175.219 123.944 175.225 123.929C175.231 123.915 175.325 123.929 175.44 123.966C175.555 124.004 175.638 124.047 175.635 124.061Z" fill="#263238"/>
<path d="M175.678 123.515C175.678 123.529 175.581 123.592 175.446 123.652C175.311 123.712 175.196 123.752 175.191 123.735C175.185 123.718 175.285 123.658 175.42 123.598C175.555 123.538 175.672 123.498 175.678 123.515Z" fill="#263238"/>
<path d="M175.624 123.166C175.624 123.166 175.538 123.283 175.386 123.366C175.302 123.423 175.202 123.453 175.1 123.452C175.185 123.397 175.275 123.35 175.369 123.312C175.501 123.234 175.61 123.151 175.624 123.166Z" fill="#263238"/>
<path d="M175.002 124.093C174.91 124.153 174.808 124.198 174.701 124.224C174.585 124.257 174.467 124.28 174.348 124.293C174.276 124.302 174.203 124.302 174.13 124.293C174.086 124.288 174.045 124.267 174.016 124.233C174.002 124.212 173.994 124.188 173.994 124.163C173.994 124.138 174.002 124.113 174.016 124.093C174.106 123.986 174.23 123.914 174.367 123.888C174.505 123.863 174.647 123.885 174.769 123.953C174.843 123.991 174.908 124.044 174.959 124.11C174.979 124.132 174.993 124.158 175.002 124.187C174.93 124.108 174.844 124.042 174.749 123.993C174.647 123.942 174.533 123.923 174.42 123.938C174.284 123.952 174.158 124.017 174.07 124.121C174.038 124.178 174.07 124.227 174.15 124.233C174.217 124.24 174.284 124.24 174.351 124.233C174.468 124.222 174.584 124.203 174.698 124.176C174.884 124.124 174.999 124.084 175.002 124.093Z" fill="#263238"/>
<path d="M174.93 124.141C174.93 124.141 174.85 124.089 174.804 123.946C174.783 123.863 174.783 123.775 174.804 123.692C174.809 123.636 174.829 123.582 174.861 123.535C174.893 123.489 174.937 123.451 174.987 123.426C175.021 123.42 175.055 123.427 175.083 123.446C175.112 123.464 175.132 123.493 175.139 123.526C175.152 123.578 175.152 123.632 175.139 123.683C175.129 123.767 175.109 123.848 175.079 123.926C175.057 124.001 175.015 124.069 174.959 124.124C174.959 124.124 174.996 124.044 175.036 123.912C175.06 123.836 175.076 123.757 175.082 123.678C175.082 123.595 175.082 123.469 174.993 123.486C174.904 123.503 174.87 123.623 174.85 123.703C174.832 123.78 174.832 123.859 174.85 123.935C174.87 124.006 174.897 124.075 174.93 124.141Z" fill="#263238"/>
<path d="M179.872 121.584C179.872 121.584 179.732 121.633 179.531 121.75C179.269 121.904 179.055 122.128 178.912 122.396C178.772 122.665 178.71 122.967 178.734 123.269C178.751 123.503 178.803 123.64 178.792 123.643C178.773 123.614 178.759 123.582 178.751 123.549C178.721 123.456 178.7 123.36 178.691 123.263C178.653 122.951 178.71 122.634 178.856 122.355C179.002 122.076 179.23 121.848 179.508 121.701C179.591 121.656 179.678 121.619 179.769 121.593C179.803 121.585 179.838 121.582 179.872 121.584Z" fill="#263238"/>
<path d="M178.521 119.851C178.695 120.157 178.851 120.472 178.989 120.795C179.143 121.111 179.279 121.434 179.399 121.764C179.222 121.46 179.066 121.145 178.931 120.821C178.774 120.507 178.637 120.183 178.521 119.851Z" fill="#263238"/>
<path d="M178.021 123.477C177.82 123.629 177.599 123.754 177.364 123.846C177.14 123.962 176.901 124.046 176.653 124.095C176.653 124.078 176.963 123.961 177.338 123.792C177.714 123.623 177.995 123.463 178.021 123.477Z" fill="#263238"/>
<path d="M178.924 123.072C178.941 123.072 178.924 123.146 178.924 123.232C178.924 123.317 178.924 123.383 178.924 123.389C178.924 123.395 178.866 123.326 178.869 123.229C178.872 123.132 178.909 123.063 178.924 123.072Z" fill="#263238"/>
<path d="M179.081 122.488C179.081 122.488 179.081 122.557 179.061 122.625C179.041 122.694 178.998 122.748 178.983 122.743C178.969 122.737 178.983 122.674 179.003 122.605C179.023 122.537 179.064 122.482 179.081 122.488Z" fill="#263238"/>
<path d="M179.488 122.07C179.488 122.09 179.431 122.116 179.371 122.171C179.311 122.225 179.279 122.285 179.265 122.279C179.25 122.274 179.265 122.191 179.331 122.125C179.397 122.059 179.488 122.056 179.488 122.07Z" fill="#263238"/>
<path d="M179.801 121.836C179.801 121.836 179.801 121.882 179.764 121.917C179.726 121.951 179.698 121.966 179.683 121.951C179.669 121.937 179.683 121.905 179.721 121.871C179.758 121.836 179.79 121.81 179.801 121.836Z" fill="#263238"/>
<path d="M180.07 120.869L173.477 124.619L164.203 106.106C162.827 101.155 161.5 83.7295 161.5 83.7295L169.134 84.3015C169.134 84.3015 170.309 96.814 172.155 103.26L180.07 120.869Z" fill="#263238"/>
<path d="M172.929 76.1162C173.113 76.1162 174.448 81.2642 172.82 84.3845C172.66 84.6876 171.49 86.3865 171.49 86.3865C167.33 91.2799 163.116 100.778 161.938 103.26C159.525 108.38 150.629 125.214 150.629 125.214L144.916 121.951L153.269 100.518L160.436 79.4881L172.929 76.1162Z" fill="#263238"/>
<path d="M169.177 89.3433C169.085 89.4768 169.005 89.6173 168.936 89.7637L168.317 90.9477C167.795 91.9344 167.061 93.2901 166.25 94.7887C165.439 96.2873 164.716 97.6487 164.218 98.6526C163.968 99.1531 163.77 99.5592 163.644 99.8423C163.569 99.9862 163.505 100.135 163.452 100.288C163.545 100.156 163.627 100.015 163.696 99.8681C163.851 99.5821 164.06 99.1759 164.312 98.6983C164.834 97.7116 165.568 96.356 166.382 94.8573C167.196 93.3587 167.916 91.9973 168.411 90.9935C168.664 90.493 168.862 90.0869 168.985 89.8037C169.06 89.6552 169.125 89.5013 169.177 89.3433Z" fill="#455A64"/>
<path d="M153.404 71.0736C152.394 70.9925 151.389 70.855 150.394 70.6617C149.17 70.3757 149.19 70.2556 149.247 70.1183C149.396 69.7465 151.42 70.5559 151.079 70.1183C150.738 69.6807 148.499 69.4205 148.668 69.0401C148.889 68.5425 150.996 69.4291 151.177 69.492C151.357 69.5549 151.449 69.2889 151.283 69.2403C151.039 69.1745 148.516 68.4023 148.731 67.9133C148.849 67.6273 149.305 67.9133 149.305 67.9133C149.305 67.9133 151.615 68.8113 151.71 68.5768C151.804 68.3423 150.463 67.7645 149.99 67.6044C149.517 67.4442 149.416 67.1611 149.649 67.0152C149.806 66.9151 151.243 67.3727 151.698 67.5443C152.154 67.7159 153.401 68.2021 152.971 67.4585C152.541 66.7149 152.507 65.9942 152.621 65.7797C152.736 65.5652 153.069 65.671 153.097 65.937C153.156 66.2203 153.252 66.4945 153.384 66.7521C153.483 66.9628 153.615 67.156 153.777 67.3241C153.917 67.47 154.046 67.5929 154.164 67.7016L155.187 68.6626L154.476 71.1622L153.404 71.0736Z" fill="#FFBE9D"/>
<path d="M166.241 43.941C165.877 43.369 165.114 43.143 164.421 43.1516C163.457 43.1902 162.534 43.5489 161.799 44.1707C161.063 44.7926 160.557 45.6419 160.361 46.5836C160.224 47.3587 160.304 48.1738 160.075 48.9202C159.866 49.4518 159.589 49.9538 159.249 50.4131C158.908 50.8717 158.672 51.3987 158.555 51.9575C158.501 52.2384 158.526 52.5287 158.627 52.7963C158.728 53.0639 158.902 53.2982 159.129 53.4733C158.845 53.7594 158.661 54.1278 158.601 54.5255C158.541 54.9231 158.61 55.3294 158.797 55.6856C158.984 56.0418 159.28 56.3294 159.641 56.507C160.003 56.6847 160.412 56.743 160.809 56.6737C161.224 56.6022 161.669 56.3877 162.047 56.5936C162.222 56.714 162.378 56.8607 162.508 57.0283C163.082 57.6146 164.039 57.709 164.802 57.4144C165.559 57.0788 166.194 56.5173 166.619 55.8071C166.74 55.6269 166.906 55.4153 167.112 55.4353C167.236 55.4658 167.349 55.529 167.439 55.6183C167.818 55.9165 168.295 56.0623 168.777 56.0271C169.258 55.992 169.709 55.7784 170.04 55.4284C170.371 55.0784 170.559 54.6173 170.567 54.1359C170.575 53.6544 170.402 53.1875 170.082 52.827C170.423 52.7187 170.732 52.5305 170.984 52.2782C171.237 52.0259 171.425 51.7168 171.533 51.377C171.739 50.6904 171.71 49.9551 171.452 49.2863C171.091 48.2939 170.375 47.4816 169.672 46.6951C169.03 45.9716 168.841 44.859 168.199 44.1383C167.908 43.7384 167.483 43.4562 167.001 43.3432C166.521 43.3027 166.041 43.4095 165.625 43.6492" fill="#263238"/>
<path d="M164.8 44.2842C165.274 44.2842 165.745 44.3781 166.183 44.5605C166.621 44.7429 167.019 45.0102 167.353 45.3469C167.687 45.6836 167.951 46.0831 168.129 46.5221C168.307 46.9612 168.396 47.4312 168.391 47.9049L168.274 57.7004C168.26 58.0058 168.186 58.3054 168.055 58.5819C167.925 58.8583 167.74 59.1061 167.513 59.3108C167.285 59.5155 167.019 59.6729 166.73 59.774C166.441 59.8752 166.135 59.9179 165.829 59.8998C164.476 59.8712 163.375 58.8273 163.372 57.566C163.372 56.2418 163.338 54.849 163.338 54.849C163.338 54.849 161.618 54.563 161.276 52.3408C161.185 51.7688 161.179 49.7296 161.196 47.8363C161.204 46.8913 161.587 45.9879 162.259 45.3226C162.932 44.6574 163.841 44.2841 164.788 44.2842H164.8Z" fill="#FFBE9D"/>
<path d="M161.718 49.192C161.718 49.2678 161.748 49.3406 161.802 49.3942C161.856 49.4478 161.928 49.478 162.004 49.478C162.076 49.4783 162.145 49.4522 162.198 49.4046C162.251 49.357 162.284 49.2914 162.291 49.2206C162.291 49.1447 162.261 49.072 162.207 49.0183C162.153 48.9647 162.08 48.9346 162.004 48.9346C161.933 48.9342 161.864 48.9604 161.811 49.008C161.758 49.0556 161.725 49.1212 161.718 49.192Z" fill="#263238"/>
<path d="M161.654 48.8804C161.688 48.9176 161.906 48.7574 162.227 48.7574C162.548 48.7574 162.761 48.9118 162.801 48.8747C162.841 48.8375 162.781 48.7917 162.683 48.7202C162.549 48.6282 162.39 48.5793 162.227 48.5801C162.068 48.5795 161.912 48.6295 161.783 48.7231C161.68 48.7946 161.637 48.8632 161.654 48.8804Z" fill="#263238"/>
<path d="M164.796 49.192C164.796 49.2678 164.826 49.3406 164.88 49.3942C164.934 49.4478 165.007 49.478 165.083 49.478C165.118 49.4803 165.154 49.4754 165.188 49.4637C165.222 49.4519 165.254 49.4335 165.28 49.4095C165.307 49.3855 165.329 49.3565 165.344 49.324C165.359 49.2916 165.368 49.2564 165.369 49.2206C165.369 49.1447 165.339 49.072 165.285 49.0183C165.232 48.9647 165.159 48.9346 165.083 48.9346C165.011 48.9342 164.942 48.9604 164.889 49.008C164.836 49.0556 164.803 49.1212 164.796 49.192Z" fill="#263238"/>
<path d="M164.679 48.9375C164.716 48.9747 164.931 48.8145 165.252 48.8145C165.573 48.8145 165.786 48.969 165.826 48.9318C165.866 48.8946 165.808 48.8489 165.708 48.7774C165.575 48.6852 165.417 48.6363 165.255 48.6372C165.095 48.6366 164.938 48.6866 164.808 48.7802C164.696 48.8517 164.662 48.9204 164.679 48.9375Z" fill="#263238"/>
<path d="M163.564 51.2141C163.401 51.1652 163.232 51.1354 163.062 51.1254C162.985 51.1254 162.91 51.0997 162.896 51.0482C162.89 50.9663 162.909 50.8845 162.95 50.8137C163.022 50.6249 163.1 50.4276 163.183 50.2188C163.397 49.7125 163.571 49.1904 163.704 48.6572C163.448 49.1441 163.231 49.651 163.057 50.173L162.833 50.7736C162.784 50.8678 162.77 50.9761 162.793 51.0796C162.804 51.1073 162.822 51.132 162.844 51.1519C162.866 51.1717 162.893 51.1861 162.922 51.194C162.966 51.2069 163.011 51.2136 163.057 51.2141C163.225 51.2358 163.396 51.2358 163.564 51.2141Z" fill="#263238"/>
<path d="M163.349 54.8488C164.399 54.8654 165.433 54.5901 166.336 54.0537C166.336 54.0537 165.613 55.5809 163.38 55.375L163.349 54.8488Z" fill="#EB996E"/>
<path d="M163.687 51.9547C163.747 51.8822 163.823 51.8255 163.91 51.7896C163.997 51.7536 164.092 51.7397 164.186 51.7488C164.253 51.7554 164.319 51.7755 164.378 51.8079C164.438 51.8404 164.49 51.8845 164.533 51.9376C164.574 51.9878 164.6 52.0499 164.604 52.115C164.609 52.1802 164.593 52.2452 164.558 52.3008C164.509 52.3566 164.444 52.3962 164.372 52.4146C164.3 52.433 164.224 52.4292 164.154 52.4038C164.009 52.3532 163.875 52.2733 163.761 52.1692C163.726 52.1446 163.696 52.1136 163.673 52.0777C163.662 52.0605 163.656 52.0407 163.656 52.0205C163.656 52.0003 163.662 51.9805 163.673 51.9633" fill="#EB996E"/>
<path d="M164.47 51.4258C164.418 51.4258 164.418 51.7575 164.131 51.9978C163.845 52.238 163.489 52.198 163.486 52.2437C163.484 52.2895 163.567 52.3095 163.719 52.3124C163.914 52.3148 164.103 52.249 164.255 52.1265C164.4 52.007 164.494 51.8358 164.516 51.6489C164.53 51.5087 164.493 51.4258 164.47 51.4258Z" fill="#263238"/>
<path d="M164.667 48.0767C164.696 48.1596 165.005 48.1224 165.366 48.1653C165.728 48.2082 166.017 48.3055 166.066 48.2311C166.115 48.1568 166.037 48.1167 165.92 48.0366C165.762 47.9362 165.584 47.8735 165.398 47.8536C165.214 47.8312 165.027 47.8538 164.853 47.9194C164.719 47.9709 164.653 48.0481 164.667 48.0767Z" fill="#263238"/>
<path d="M161.766 47.9905C161.821 48.0592 162.033 47.9905 162.288 47.9905C162.543 47.9905 162.758 48.0363 162.81 47.9648C162.861 47.8933 162.795 47.859 162.704 47.7932C162.577 47.7142 162.429 47.6745 162.28 47.6791C162.13 47.6836 161.986 47.7323 161.864 47.8189C161.772 47.8847 161.743 47.9562 161.766 47.9905Z" fill="#263238"/>
<path d="M169.197 47.8448C169.039 46.4978 168.403 45.1393 167.242 44.43C166.227 43.8065 165.186 43.6664 164.177 44.2155C163.752 44.1572 163.32 44.1933 162.91 44.3214C162.501 44.4494 162.125 44.6662 161.81 44.9562C161.159 45.5777 160.753 46.4103 160.663 47.3043C160.58 48.1946 160.719 49.0915 161.067 49.9155L161.239 47.6618C162.386 47.1699 163.664 46.2003 164.106 45.022C164.331 45.8174 164.761 46.5398 165.355 47.1166C165.948 47.6934 166.683 48.1044 167.486 48.3081C167.378 48.9673 167.443 49.643 167.676 50.2692C167.909 50.8954 168.3 51.4506 168.813 51.8803C169.094 50.5532 169.355 49.1919 169.197 47.8448Z" fill="#263238"/>
<path d="M167.717 49.1918C167.892 50.0498 167.594 50.9307 167.376 51.7829C167.158 52.6352 167.026 53.5933 167.485 54.3569C167.651 54.5499 167.758 54.786 167.795 55.0376C167.747 55.2589 167.669 55.4725 167.562 55.6725C167.514 55.8748 167.532 56.087 167.611 56.279C167.691 56.471 167.829 56.633 168.007 56.7422C168.371 56.9535 168.804 57.016 169.214 56.9166C169.614 56.8129 169.999 56.6592 170.36 56.459L171.447 55.9214C171.612 55.849 171.766 55.7526 171.903 55.6354C172.113 55.4122 172.25 55.1312 172.298 54.8288C172.532 53.6589 172.328 52.4441 171.725 51.414C171.151 50.3844 171.404 48.677 170.403 48.0449" fill="#263238"/>
<path d="M170.902 56.076C171.103 56.0269 171.296 55.9499 171.475 55.8472C171.714 55.6956 171.916 55.4921 172.064 55.2519C172.213 55.0117 172.306 54.741 172.335 54.4601C172.367 54.0685 172.3 53.675 172.14 53.3161C172.051 53.1192 171.939 52.933 171.808 52.7612C171.667 52.5839 171.521 52.418 171.338 52.2436C171.16 52.0653 170.996 51.8741 170.847 51.6716C170.693 51.4507 170.594 51.1954 170.561 50.928C170.495 50.3788 170.701 49.8383 170.612 49.3149C170.568 49.0584 170.427 48.8288 170.217 48.6743C170.004 48.5257 169.769 48.4118 169.52 48.3368C169.026 48.2011 168.556 47.9919 168.124 47.7162C167.412 47.2341 166.77 46.6567 166.215 46.0002C165.733 45.4453 165.384 44.9677 165.146 44.636C165.028 44.4672 164.939 44.35 164.879 44.247C164.846 44.2023 164.819 44.1544 164.796 44.104C164.796 44.104 164.839 44.144 164.905 44.2298L165.191 44.6016C165.444 44.922 165.805 45.3881 166.292 45.9287C166.849 46.572 167.488 47.1393 168.193 47.6161C168.618 47.8801 169.08 48.0814 169.563 48.2138C169.828 48.2925 170.079 48.4132 170.306 48.5713C170.545 48.7471 170.706 49.0086 170.756 49.3006C170.847 49.8726 170.638 50.4217 170.704 50.9251C170.77 51.4285 171.12 51.8174 171.447 52.1606C171.613 52.3296 171.771 52.5072 171.92 52.6926C172.056 52.8737 172.171 53.0705 172.261 53.2789C172.426 53.6545 172.49 54.0665 172.447 54.4744C172.41 54.8109 172.282 55.1311 172.077 55.401C171.923 55.6056 171.728 55.776 171.504 55.9015C171.364 55.9777 171.213 56.0326 171.057 56.0645C171.006 56.0744 170.954 56.0783 170.902 56.076Z" fill="#455A64"/>
<path d="M170.215 47.3101C170.134 47.3054 170.055 47.289 169.979 47.2614C169.767 47.2032 169.559 47.1335 169.355 47.0527C167.995 46.5256 166.772 45.6973 165.78 44.6302C165.593 44.4243 165.447 44.2499 165.356 44.1269C165.264 44.0039 165.215 43.9295 165.224 43.9238C165.446 44.1235 165.657 44.3344 165.857 44.5559C166.875 45.5696 168.075 46.3835 169.395 46.9554C169.899 47.1899 170.223 47.2872 170.215 47.3101Z" fill="#455A64"/>
<path d="M162.374 43.8722C162.374 43.8579 162.477 43.7349 162.701 43.5862C162.996 43.3746 163.347 43.2533 163.71 43.2373C163.914 43.232 164.116 43.2741 164.3 43.3602C164.45 43.4338 164.582 43.5404 164.685 43.672C164.737 43.728 164.777 43.7937 164.803 43.8654C164.829 43.9372 164.84 44.0134 164.836 44.0895C164.768 43.9669 164.689 43.8502 164.601 43.7406C164.488 43.6211 164.349 43.5276 164.196 43.4664C164.043 43.4052 163.878 43.3777 163.713 43.386C163.375 43.403 163.047 43.5011 162.755 43.672C162.636 43.7523 162.508 43.8194 162.374 43.8722Z" fill="#455A64"/>
<path d="M35.326 93.3101C35.326 93.3101 37.2123 93.3931 36.5501 97.5515C35.8879 101.71 35.2027 103.889 35.2027 103.889C35.2027 103.889 35.1511 104.824 35.8907 104.724C36.6303 104.624 38.0923 103.881 38.68 104.633C39.2677 105.385 38.9208 106.458 37.8544 107.616C36.788 108.774 34.5434 111.391 34.3399 111.62C34.1363 111.849 34.0188 112.321 34.5348 112.335C35.0508 112.349 38.6284 111.583 38.8893 113.299C39.1501 115.015 35.6499 117.749 35.2715 118.055C34.8931 118.361 34.8501 118.578 34.9619 118.804C35.0737 119.03 36.2548 118.658 37.2811 118.481C38.3073 118.304 39.5285 118.281 39.5973 119.285C39.6661 120.288 37.9461 123.003 32.4106 125.416L29.7733 126.369L27.5889 124.593C23.1455 120.509 22.4059 117.386 22.7987 116.459C23.1914 115.532 24.3381 115.956 25.2497 116.459C26.1613 116.962 27.156 117.692 27.3366 117.517C27.5172 117.343 27.5459 117.122 27.2879 116.711C27.0299 116.299 24.6133 112.572 25.4217 111.036C26.2301 109.501 29.3633 111.385 29.8564 111.54C30.3495 111.694 30.3839 111.214 30.2721 110.928C30.1603 110.642 28.8903 107.433 28.2654 105.991C27.6405 104.55 27.6261 103.443 28.4575 102.905C29.2888 102.368 30.3982 103.563 31.0661 103.898C31.7341 104.232 31.9892 103.326 31.9892 103.326C31.9892 103.326 32.0494 101.038 32.7861 96.8966C33.5229 92.7553 35.3661 93.3044 35.3661 93.3044" fill="#761B7B"/>
<path d="M34.744 97.0366V97.1138L34.7096 97.3369C34.6752 97.5371 34.6293 97.826 34.5691 98.1949C34.4401 98.9442 34.2595 100.017 34.0359 101.341C33.5973 104.004 32.9896 107.67 32.3159 111.72C31.6423 115.77 31.0374 119.442 30.5673 122.096L29.9939 125.242C29.9223 125.605 29.8707 125.891 29.8305 126.1C29.8133 126.194 29.799 126.266 29.7875 126.323C29.7836 126.348 29.7769 126.373 29.7675 126.397C29.7637 126.372 29.7637 126.346 29.7675 126.32L29.8019 126.097C29.8334 125.894 29.8821 125.608 29.9423 125.239C30.0685 124.49 30.2519 123.417 30.4755 122.093C30.9227 119.436 31.5276 115.767 32.1955 111.711C32.8635 107.656 33.4741 103.989 33.9442 101.338L34.5175 98.1921C34.5863 97.8288 34.6408 97.5428 34.6781 97.3341C34.6981 97.2425 34.7125 97.1682 34.7239 97.1138C34.7277 97.0874 34.7344 97.0615 34.744 97.0366Z" fill="#263238"/>
<path d="M36.6932 105.757C36.5148 105.938 36.3232 106.105 36.1198 106.257L34.741 107.439C34.202 107.902 33.709 108.317 33.3449 108.605C33.1614 108.751 33.0124 108.866 32.9063 108.94C32.8529 108.983 32.7941 109.02 32.7314 109.049C32.9125 108.871 33.1039 108.704 33.3048 108.548L34.6779 107.356C35.2168 106.895 35.7128 106.483 36.0797 106.197L36.5212 105.866C36.574 105.823 36.6317 105.786 36.6932 105.757Z" fill="#263238"/>
<path d="M32.4905 108.937C32.4676 108.954 31.6305 107.925 30.6243 106.649C29.6181 105.374 28.8154 104.301 28.8384 104.281C28.8613 104.261 29.6984 105.293 30.7074 106.583C31.7165 107.873 32.5163 108.917 32.4905 108.937Z" fill="#263238"/>
<path d="M31.6628 116.147C31.5978 116.121 31.5362 116.088 31.4793 116.047C31.3646 115.981 31.1926 115.875 31.0034 115.744C30.6078 115.481 30.0689 115.103 29.4984 114.654C28.928 114.205 28.4292 113.776 28.0651 113.453C27.8902 113.293 27.7498 113.167 27.658 113.064C27.6054 113.018 27.5583 112.966 27.5176 112.91C27.7269 113.06 27.9269 113.222 28.1167 113.396C28.4779 113.702 28.9767 114.122 29.55 114.568C30.1234 115.015 30.6508 115.404 31.0321 115.681C31.2524 115.822 31.4631 115.978 31.6628 116.147Z" fill="#263238"/>
<path d="M36.0852 114.114C35.8831 114.239 35.6712 114.348 35.4517 114.44C35.0561 114.629 34.5028 114.88 33.8922 115.152C33.2816 115.424 32.7226 115.667 32.3184 115.838C32.1033 115.939 31.881 116.025 31.6533 116.093C31.8554 115.968 32.0673 115.859 32.2869 115.767C32.6825 115.581 33.2357 115.326 33.8463 115.055C34.4569 114.783 35.0159 114.54 35.4201 114.368C35.635 114.267 35.8573 114.182 36.0852 114.114Z" fill="#263238"/>
<path d="M36.1628 120.56C36.0955 120.607 36.0235 120.646 35.9478 120.677L35.3429 120.963C34.8298 121.198 34.1189 121.512 33.3363 121.856C32.5537 122.199 31.8341 122.505 31.3124 122.714L30.6961 122.962C30.6216 122.997 30.5438 123.024 30.4639 123.043C30.5298 122.994 30.6021 122.954 30.6789 122.925L31.2837 122.639C31.794 122.408 32.5049 122.09 33.2904 121.747C34.0759 121.404 34.7954 121.101 35.3143 120.889L35.9335 120.637C36.0067 120.603 36.0837 120.577 36.1628 120.56Z" fill="#263238"/>
<path d="M30.576 122.945C30.4975 122.905 30.4227 122.858 30.3524 122.805C30.2148 122.711 30.0141 122.571 29.7791 122.393C29.2917 122.036 28.6324 121.535 27.9215 120.943C27.2105 120.351 26.5913 119.799 26.1499 119.388C25.9291 119.182 25.7543 119.01 25.6367 118.89C25.5714 118.832 25.5119 118.768 25.459 118.698C25.5345 118.744 25.6039 118.798 25.6654 118.861C25.8087 118.984 25.9893 119.147 26.2015 119.33C26.6544 119.728 27.2822 120.274 27.9903 120.86C28.6983 121.447 29.3519 121.961 29.8249 122.333L30.3983 122.771C30.5101 122.877 30.5817 122.937 30.576 122.945Z" fill="#263238"/>
<path d="M188.687 108.165C189.101 108.363 189.472 108.642 189.775 108.986C190.079 109.33 190.311 109.732 190.456 110.167C190.74 111.04 190.82 111.966 190.691 112.875C190.493 114.634 189.49 116.407 188.397 117.814C186.912 116.522 186.571 114.268 186.471 113.113C186.31 111.288 187.133 107.893 188.673 108.165" fill="#761B7B"/>
<path d="M190.138 120.715C190.037 120.212 190.071 119.692 190.236 119.207C190.401 118.722 190.692 118.289 191.078 117.952C191.472 117.621 191.929 117.371 192.421 117.219C192.914 117.066 193.432 117.013 193.945 117.062C194.418 117.1 194.925 117.237 195.197 117.634C195.313 117.824 195.375 118.041 195.379 118.262C195.382 118.484 195.327 118.703 195.218 118.896C194.991 119.279 194.668 119.595 194.28 119.814C192.996 120.62 191.603 121.164 190.149 120.726" fill="#761B7B"/>
<path d="M188.234 126.106C188.242 125.985 188.259 125.864 188.286 125.746C188.335 125.491 188.395 125.174 188.467 124.77C188.637 123.682 188.981 122.629 189.487 121.65C190.011 120.672 190.785 119.851 191.732 119.27C192.02 119.101 192.327 118.965 192.646 118.867C192.733 118.84 192.821 118.819 192.91 118.801C192.94 118.791 192.972 118.787 193.005 118.787C192.577 118.936 192.166 119.128 191.778 119.359C190.865 119.953 190.116 120.766 189.602 121.724C189.105 122.692 188.756 123.728 188.567 124.799C188.478 125.208 188.404 125.54 188.346 125.768C188.32 125.884 188.283 125.997 188.234 126.106Z" fill="#263238"/>
<path d="M188.288 110.805C188.302 110.857 188.309 110.911 188.308 110.965C188.308 111.079 188.323 111.231 188.334 111.417C188.357 111.811 188.38 112.381 188.403 113.084C188.446 114.494 188.483 116.442 188.475 118.592C188.466 120.743 188.412 122.691 188.354 124.098C188.326 124.804 188.297 125.374 188.271 125.765C188.271 125.951 188.248 126.103 188.243 126.22C188.241 126.273 188.234 126.326 188.222 126.377C188.216 126.324 188.216 126.27 188.222 126.217C188.222 126.1 188.222 125.951 188.222 125.765C188.222 125.354 188.245 124.787 188.263 124.095C188.297 122.688 188.337 120.74 188.346 118.592C188.354 116.445 188.346 114.497 188.311 113.087C188.311 112.395 188.291 111.829 188.286 111.42C188.286 111.231 188.286 111.082 188.286 110.965C188.282 110.911 188.283 110.858 188.288 110.805Z" fill="#263238"/>
<path d="M187.569 121.787C187.39 120.721 186.958 119.713 186.31 118.846C185.662 117.98 184.816 117.28 183.842 116.805C183.347 116.568 182.696 116.413 182.292 116.782C181.887 117.151 181.973 117.812 182.174 118.324C182.61 119.385 183.351 120.295 184.304 120.936C185.257 121.578 186.379 121.924 187.529 121.93" fill="#761B7B"/>
<path d="M184.089 118.472C184.199 118.507 184.304 118.553 184.405 118.609C184.527 118.665 184.645 118.729 184.76 118.798C184.892 118.881 185.047 118.961 185.213 119.084C185.392 119.204 185.564 119.334 185.729 119.473C185.923 119.63 186.107 119.797 186.282 119.974C186.682 120.381 187.033 120.832 187.331 121.318C187.621 121.808 187.852 122.33 188.019 122.874C188.092 123.111 188.151 123.353 188.194 123.597C188.237 123.81 188.267 124.025 188.283 124.241C188.302 124.417 188.311 124.595 188.309 124.773C188.317 124.907 188.317 125.042 188.309 125.176C188.309 125.291 188.295 125.405 188.269 125.516C188.24 125.516 188.292 125.027 188.206 124.249C188.183 124.038 188.149 123.828 188.103 123.62C188.054 123.381 187.993 123.144 187.919 122.911C187.746 122.378 187.516 121.866 187.231 121.384C186.938 120.906 186.595 120.462 186.208 120.057C186.039 119.88 185.861 119.713 185.674 119.556C185.513 119.415 185.345 119.282 185.17 119.159C184.522 118.69 184.075 118.498 184.089 118.472Z" fill="#263238"/>
<path d="M133.962 38.0811H76.7891V95.1209H133.962V38.0811Z" fill="#F5F5F5"/>
<path d="M133.959 95.1208C133.959 94.5717 133.933 72.2751 133.896 38.081L133.959 38.1468H76.7947L76.8692 38.0724C76.8692 58.9504 76.8692 78.5357 76.8692 95.1122L76.8062 95.0465L133.976 95.1122L76.8062 95.1752H76.7402V95.1122C76.7402 78.5242 76.7402 58.959 76.7402 38.0724V37.998H76.8205H133.985H134.051V38.061C133.985 72.2751 133.959 94.5717 133.959 95.1208Z" fill="#263238"/>
<path d="M128.833 91.72C129.403 91.6465 129.979 91.6216 130.553 91.6457L130.478 91.72V91.3797C130.478 91.271 130.478 91.1652 130.478 91.0594C130.478 90.8706 130.478 90.6904 130.493 90.5131C130.484 90.3435 130.503 90.1737 130.547 90.0098C130.588 90.1743 130.605 90.3438 130.599 90.5131C130.599 90.6904 130.599 90.8706 130.616 91.0594C130.616 91.1652 130.616 91.271 130.616 91.3797V91.72L130.542 91.7944C129.971 91.8196 129.399 91.7947 128.833 91.72Z" fill="#455A64"/>
<path d="M121.615 91.7204C122.816 91.6212 124.023 91.6212 125.224 91.7204C124.023 91.8195 122.816 91.8195 121.615 91.7204Z" fill="#455A64"/>
<path d="M114.396 91.7204C115.597 91.6212 116.805 91.6212 118.006 91.7204C116.805 91.8195 115.597 91.8195 114.396 91.7204Z" fill="#455A64"/>
<path d="M107.179 91.7204C108.38 91.6212 109.587 91.6212 110.788 91.7204C109.587 91.8195 108.38 91.8195 107.179 91.7204Z" fill="#455A64"/>
<path d="M99.96 91.7204C101.161 91.6212 102.368 91.6212 103.569 91.7204C102.368 91.8195 101.161 91.8195 99.96 91.7204Z" fill="#455A64"/>
<path d="M92.7422 91.7204C93.9432 91.6212 95.1503 91.6212 96.3513 91.7204C95.1503 91.8195 93.9432 91.8195 92.7422 91.7204Z" fill="#455A64"/>
<path d="M85.5234 91.7204C86.1224 91.6469 86.7264 91.622 87.3294 91.6461C87.9315 91.6221 88.5345 91.647 89.1326 91.7204C88.5347 91.7956 87.9315 91.8205 87.3294 91.7948C86.7264 91.8206 86.1223 91.7957 85.5234 91.7204Z" fill="#455A64"/>
<path d="M80.1945 90.0044C80.2681 90.5732 80.2931 91.1473 80.269 91.7204L80.1945 91.646H80.8653L81.41 91.6632C81.5797 91.6567 81.7495 91.6741 81.9145 91.7147C81.7502 91.759 81.5799 91.7774 81.41 91.769L80.8653 91.7833L80.5528 91.8062H80.206L80.1314 91.7318C80.1029 91.1553 80.124 90.5774 80.1945 90.0044Z" fill="#455A64"/>
<path d="M80.1948 82.8027C80.2685 83.4003 80.2934 84.0029 80.2693 84.6045C80.2935 85.2052 80.2686 85.8068 80.1948 86.4035C80.121 85.8068 80.0961 85.2052 80.1203 84.6045C80.0962 84.0029 80.1211 83.4003 80.1948 82.8027Z" fill="#455A64"/>
<path d="M80.1948 75.6016C80.2685 76.1992 80.2934 76.8017 80.2693 77.4034C80.2935 78.004 80.2686 78.6057 80.1948 79.2023C80.121 78.6057 80.0961 78.004 80.1203 77.4034C80.0962 76.8017 80.1211 76.1992 80.1948 75.6016Z" fill="#455A64"/>
<path d="M80.1948 68.4028C80.2686 68.9995 80.2935 69.6011 80.2693 70.2018C80.2934 70.8034 80.2685 71.406 80.1948 72.0036C80.1211 71.406 80.0962 70.8034 80.1203 70.2018C80.0961 69.6011 80.121 68.9995 80.1948 68.4028Z" fill="#455A64"/>
<path d="M80.1948 61.2041C80.2686 61.8007 80.2935 62.4024 80.2693 63.003C80.2934 63.6047 80.2685 64.2072 80.1948 64.8048C80.1211 64.2072 80.0962 63.6047 80.1203 63.003C80.0961 62.4024 80.121 61.8007 80.1948 61.2041Z" fill="#455A64"/>
<path d="M80.1948 53.9995C80.2684 54.5962 80.2933 55.1978 80.2693 55.7985C80.2934 56.4001 80.2685 57.0027 80.1948 57.6003C80.121 57.0027 80.0961 56.4001 80.1202 55.7985C80.0962 55.1978 80.1211 54.5962 80.1948 53.9995Z" fill="#455A64"/>
<path d="M80.1948 46.7983C80.2684 47.395 80.2933 47.9966 80.2693 48.5973C80.2934 49.1989 80.2685 49.8015 80.1948 50.3991C80.121 49.8015 80.0961 49.1989 80.1202 48.5973C80.0962 47.9966 80.1211 47.395 80.1948 46.7983Z" fill="#455A64"/>
<path d="M81.9148 41.4701C81.3447 41.5436 80.7693 41.5684 80.1948 41.5445L80.2665 41.4701V41.8104C80.2665 41.9191 80.2665 42.0249 80.2665 42.1308C80.2665 42.3195 80.2665 42.4997 80.2522 42.677C80.2588 42.8466 80.2404 43.0162 80.1977 43.1804C80.1553 43.0161 80.1378 42.8464 80.1461 42.677C80.1461 42.4997 80.1461 42.3195 80.1289 42.1308C80.1289 42.0249 80.1289 41.9191 80.1289 41.8104C80.1289 41.7532 80.1289 41.696 80.1289 41.6388V41.4701L80.2034 41.3957C80.775 41.3705 81.3477 41.3954 81.9148 41.4701Z" fill="#455A64"/>
<path d="M89.1326 41.4699C88.5345 41.5434 87.9315 41.5683 87.3294 41.5443C86.7264 41.5683 86.1224 41.5435 85.5234 41.4699C86.1223 41.3947 86.7264 41.3698 87.3294 41.3956C87.9315 41.3699 88.5347 41.3947 89.1326 41.4699Z" fill="#455A64"/>
<path d="M96.3513 41.4699C95.1503 41.569 93.9432 41.569 92.7422 41.4699C93.9432 41.3707 95.1503 41.3707 96.3513 41.4699Z" fill="#455A64"/>
<path d="M103.569 41.4699C102.368 41.569 101.161 41.569 99.96 41.4699C101.161 41.3707 102.368 41.3707 103.569 41.4699Z" fill="#455A64"/>
<path d="M110.788 41.4699C109.587 41.569 108.38 41.569 107.179 41.4699C108.38 41.3707 109.587 41.3707 110.788 41.4699Z" fill="#455A64"/>
<path d="M118.006 41.4699C116.805 41.569 115.597 41.569 114.396 41.4699C115.597 41.3707 116.805 41.3707 118.006 41.4699Z" fill="#455A64"/>
<path d="M125.224 41.4699C124.023 41.569 122.816 41.569 121.615 41.4699C122.816 41.3707 124.023 41.3707 125.224 41.4699Z" fill="#455A64"/>
<path d="M130.553 43.1862C130.478 42.6175 130.453 42.0433 130.478 41.4702C130.628 41.6189 130.519 41.5102 130.55 41.5445H129.882L129.335 41.5274C129.166 41.5337 128.997 41.5164 128.833 41.4759C128.997 41.4333 129.166 41.415 129.335 41.4216H129.882H130.206H130.55C130.585 41.453 130.478 41.3472 130.628 41.4959C130.65 42.0604 130.625 42.6258 130.553 43.1862Z" fill="#455A64"/>
<path d="M130.553 50.3991C130.478 49.8016 130.453 49.1989 130.479 48.5973C130.453 47.9966 130.478 47.3948 130.553 46.7983C130.627 47.395 130.652 47.9966 130.628 48.5973C130.652 49.1989 130.627 49.8015 130.553 50.3991Z" fill="#455A64"/>
<path d="M130.553 57.6003C130.478 57.0028 130.453 56.4001 130.479 55.7985C130.453 55.1978 130.478 54.596 130.553 53.9995C130.627 54.5961 130.652 55.1978 130.628 55.7985C130.652 56.4001 130.627 57.0027 130.553 57.6003Z" fill="#455A64"/>
<path d="M130.553 64.8019C130.478 64.2045 130.453 63.6017 130.479 63.0001C130.453 62.3994 130.478 61.7977 130.553 61.2012C130.627 61.7978 130.652 62.3994 130.628 63.0001C130.652 63.6017 130.627 64.2043 130.553 64.8019Z" fill="#455A64"/>
<path d="M130.553 72.0036C130.478 71.4061 130.453 70.8034 130.479 70.2018C130.453 69.6011 130.478 68.9993 130.553 68.4028C130.627 68.9995 130.652 69.6011 130.628 70.2018C130.652 70.8034 130.627 71.406 130.553 72.0036Z" fill="#455A64"/>
<path d="M130.553 79.2023C130.478 78.6058 130.453 78.004 130.479 77.4034C130.453 76.8017 130.478 76.199 130.553 75.6016C130.627 76.1992 130.652 76.8017 130.628 77.4034C130.652 78.004 130.627 78.6057 130.553 79.2023Z" fill="#455A64"/>
<path d="M130.553 86.4035C130.478 85.807 130.453 85.2052 130.479 84.6045C130.453 84.0029 130.478 83.4002 130.553 82.8027C130.627 83.4003 130.652 84.0029 130.628 84.6045C130.652 85.2052 130.627 85.8068 130.553 86.4035Z" fill="#455A64"/>
<path d="M102.913 56.9284C102.817 56.9278 102.72 56.9153 102.627 56.8913C102.346 56.8261 102.09 56.6811 101.89 56.4737C101.726 56.3139 101.599 56.1195 101.52 55.9048C101.441 55.69 101.41 55.4604 101.431 55.2325C101.467 54.9445 101.594 54.6757 101.795 54.466C102.017 54.2225 102.326 54.0765 102.655 54.0599L102.598 54.1171C102.563 53.6907 102.674 53.2653 102.913 52.9101C103.059 52.7257 103.26 52.5925 103.487 52.5298C103.726 52.4739 103.975 52.4739 104.215 52.5298L104.134 52.6041C104.108 52.3374 104.146 52.0681 104.246 51.8193C104.346 51.5704 104.504 51.3491 104.708 51.1741C104.924 50.9922 105.177 50.8595 105.45 50.7852L105.657 50.728L105.869 50.6936C106.011 50.6674 106.155 50.654 106.299 50.6536C106.896 50.601 107.496 50.7296 108.019 51.0225C108.282 51.1989 108.499 51.4364 108.649 51.7147C108.796 51.9969 108.885 52.3048 108.913 52.6213C108.926 52.7592 108.926 52.898 108.913 53.036L108.836 52.953C109.405 52.9128 109.971 53.0716 110.435 53.4021C110.862 53.7382 111.188 54.1842 111.379 54.6919C111.491 54.9311 111.541 55.1947 111.525 55.4584C111.503 55.7166 111.418 55.9653 111.275 56.182C111.14 56.3859 110.961 56.558 110.752 56.6864C110.544 56.8148 110.309 56.8964 110.066 56.9256L104.888 56.9742H103.051H102.919C102.963 56.9694 103.007 56.9694 103.051 56.9742L103.435 56.957L104.891 56.917L110.051 56.814C110.275 56.7859 110.489 56.7096 110.68 56.5906C110.871 56.4716 111.034 56.3127 111.158 56.1248C111.29 55.9258 111.368 55.6955 111.383 55.457C111.398 55.2186 111.35 54.9803 111.244 54.7663C111.077 54.265 110.773 53.8202 110.367 53.4821C109.928 53.1746 109.396 53.0271 108.862 53.0646H108.776V52.9788C108.787 52.8503 108.787 52.7211 108.776 52.5927C108.76 52.2986 108.677 52.0119 108.534 51.7543C108.391 51.4967 108.192 51.2748 107.95 51.1055C107.45 50.8256 106.876 50.703 106.305 50.7537C105.763 50.7439 105.234 50.9139 104.8 51.237C104.612 51.3985 104.467 51.6028 104.376 51.8324C104.286 52.0619 104.252 52.31 104.278 52.5555V52.647L104.189 52.627C103.979 52.5664 103.756 52.5656 103.546 52.6247C103.336 52.6839 103.146 52.8006 102.999 52.9616C102.776 53.2992 102.675 53.7028 102.713 54.1056V54.16H102.655C102.355 54.174 102.071 54.3055 101.867 54.526C101.676 54.7182 101.553 54.9672 101.517 55.2353C101.488 55.592 101.583 55.9478 101.787 56.2424C101.991 56.5369 102.291 56.752 102.635 56.8512C102.819 56.9141 102.913 56.9141 102.913 56.9284Z" fill="#263238"/>
<path d="M107.764 55.1983C107.278 54.7654 106.824 54.297 106.408 53.7969H106.517L106.491 53.8255C106.048 54.3167 105.569 54.7746 105.058 55.1954C105.464 54.6712 105.909 54.1788 106.391 53.7225L106.419 53.6939L106.474 53.6367L106.528 53.6968C106.977 54.1657 107.39 54.6676 107.764 55.1983Z" fill="#263238"/>
<path d="M106.461 58.5443C106.388 57.7477 106.363 56.9473 106.387 56.1477C106.363 55.348 106.388 54.5476 106.461 53.751C106.537 54.5475 106.562 55.348 106.536 56.1477C106.562 56.9473 106.537 57.7478 106.461 58.5443Z" fill="#263238"/>
<path d="M94.4933 63.5722H93.1803L92.908 64.1899H92.5439L93.6648 61.7246H94.026L95.1498 64.1899H94.78L94.4933 63.5722ZM94.37 63.2862L93.8368 62.0792L93.3036 63.2862H94.37Z" fill="#263238"/>
<path d="M97.1994 61.5757V64.1897H96.8755V63.9037C96.7978 64.006 96.6965 64.0881 96.5802 64.1429C96.4639 64.1977 96.336 64.2236 96.2075 64.2183C95.9544 64.2183 95.7115 64.118 95.5325 63.9394C95.3535 63.7608 95.2529 63.5185 95.2529 63.2659C95.2529 63.0134 95.3535 62.7711 95.5325 62.5925C95.7115 62.4139 95.9544 62.3136 96.2075 62.3136C96.3324 62.309 96.4567 62.3338 96.5702 62.3859C96.6838 62.4381 96.7834 62.5162 96.8611 62.6139V61.5843L97.1994 61.5757ZM96.864 63.2574C96.8584 63.1342 96.8166 63.0153 96.7438 62.9156C96.6711 62.8159 96.5706 62.7398 96.4548 62.6966C96.339 62.6534 96.2131 62.6451 96.0926 62.6728C95.9721 62.7004 95.8625 62.7628 95.7772 62.8521C95.692 62.9414 95.635 63.0537 95.6132 63.1751C95.5914 63.2965 95.6059 63.4216 95.6548 63.5349C95.7037 63.6481 95.7848 63.7446 95.8882 63.8122C95.9916 63.8798 96.1126 63.9156 96.2362 63.9152C96.322 63.9174 96.4073 63.9017 96.4865 63.869C96.5658 63.8363 96.6374 63.7874 96.6965 63.7254C96.7557 63.6634 96.8012 63.5897 96.83 63.5091C96.8589 63.4285 96.8704 63.3427 96.864 63.2574Z" fill="#263238"/>
<path d="M99.6076 61.5757V64.1897H99.2837V63.9037C99.206 64.006 99.1047 64.0881 98.9884 64.1429C98.8721 64.1977 98.7443 64.2236 98.6157 64.2183C98.3626 64.2183 98.1198 64.118 97.9407 63.9394C97.7617 63.7608 97.6611 63.5185 97.6611 63.2659C97.6611 63.0134 97.7617 62.7711 97.9407 62.5925C98.1198 62.4139 98.3626 62.3136 98.6157 62.3136C98.7406 62.3094 98.8647 62.3344 98.9782 62.3865C99.0916 62.4387 99.1913 62.5165 99.2693 62.6139V61.5843L99.6076 61.5757ZM99.2722 63.2574C99.2666 63.1342 99.2248 63.0153 99.152 62.9156C99.0793 62.8159 98.9788 62.7398 98.863 62.6966C98.7472 62.6534 98.6213 62.6451 98.5008 62.6728C98.3803 62.7004 98.2707 62.7628 98.1854 62.8521C98.1002 62.9414 98.0432 63.0537 98.0214 63.1751C97.9996 63.2965 98.0141 63.4216 98.063 63.5349C98.1119 63.6481 98.193 63.7446 98.2964 63.8122C98.3998 63.8798 98.5208 63.9156 98.6444 63.9152C98.7302 63.9174 98.8155 63.9017 98.8947 63.869C98.974 63.8363 99.0456 63.7874 99.1047 63.7254C99.1639 63.6634 99.2094 63.5897 99.2382 63.5091C99.2671 63.4285 99.2786 63.3427 99.2722 63.2574Z" fill="#263238"/>
<path d="M101.139 61.7444C101.139 61.7148 101.145 61.6854 101.156 61.6581C101.168 61.6309 101.185 61.6062 101.206 61.5856C101.228 61.5651 101.253 61.549 101.281 61.5385C101.309 61.5279 101.338 61.5231 101.368 61.5242C101.397 61.5227 101.427 61.5271 101.454 61.5371C101.482 61.5472 101.507 61.5627 101.528 61.5827C101.55 61.6027 101.567 61.6269 101.579 61.6537C101.591 61.6805 101.597 61.7094 101.597 61.7387C101.597 61.7994 101.573 61.8576 101.53 61.9005C101.487 61.9434 101.429 61.9675 101.368 61.9675C101.307 61.9675 101.249 61.9434 101.206 61.9005C101.163 61.8576 101.139 61.7994 101.139 61.7387V61.7444ZM101.199 62.3164H101.537V64.184H101.193L101.199 62.3164Z" fill="#263238"/>
<path d="M103.234 64.0811C103.117 64.1704 102.973 64.2159 102.827 64.2098C102.748 64.219 102.669 64.2106 102.594 64.1854C102.519 64.1602 102.451 64.1187 102.394 64.064C102.337 64.0093 102.293 63.9427 102.266 63.869C102.238 63.7953 102.227 63.7163 102.233 63.6378V62.6139H101.915V62.3279H102.233V61.9189H102.572V62.3279H103.108V62.6139H102.572V63.6235C102.567 63.6634 102.572 63.7037 102.585 63.7418C102.597 63.7798 102.618 63.8148 102.645 63.8445C102.672 63.8742 102.705 63.8978 102.741 63.9139C102.778 63.9301 102.818 63.9383 102.858 63.9381C102.955 63.9394 103.048 63.9082 103.125 63.8494L103.234 64.0811Z" fill="#263238"/>
<path d="M105.264 63.369H103.747C103.769 63.529 103.851 63.6747 103.977 63.7763C104.103 63.8779 104.263 63.9276 104.424 63.9152C104.525 63.919 104.626 63.9007 104.72 63.8617C104.813 63.8227 104.897 63.7639 104.966 63.6893L105.152 63.9066C105.014 64.047 104.839 64.1445 104.646 64.1873C104.454 64.23 104.253 64.2162 104.069 64.1474C103.884 64.0787 103.724 63.958 103.607 63.8001C103.49 63.6421 103.421 63.4536 103.409 63.2574C103.404 63.1323 103.424 63.0074 103.469 62.8905C103.514 62.7736 103.582 62.6672 103.67 62.5778C103.758 62.4885 103.864 62.4182 103.98 62.3712C104.096 62.3243 104.221 62.3018 104.346 62.305C104.472 62.3016 104.597 62.3243 104.714 62.3719C104.83 62.4195 104.935 62.4908 105.022 62.5812C105.11 62.6717 105.177 62.7794 105.22 62.8973C105.263 63.0152 105.281 63.1408 105.272 63.266C105.272 63.3005 105.269 63.3349 105.264 63.369ZM103.747 63.1259H104.948C104.931 62.9793 104.86 62.8443 104.749 62.7463C104.639 62.6483 104.496 62.5942 104.348 62.5942C104.2 62.5942 104.057 62.6483 103.946 62.7463C103.836 62.8443 103.765 62.9793 103.747 63.1259Z" fill="#263238"/>
<path d="M108.846 63.1145V64.1899H108.508V63.1545C108.508 62.7885 108.33 62.6083 108.024 62.6083C107.943 62.6032 107.862 62.6162 107.787 62.6463C107.711 62.6764 107.644 62.7229 107.589 62.7823C107.534 62.8418 107.493 62.9127 107.469 62.99C107.445 63.0673 107.439 63.1489 107.45 63.2289V64.1899H107.112V63.1545C107.112 62.7885 106.937 62.6083 106.628 62.6083C106.318 62.6083 106.069 62.8228 106.069 63.2289V64.1899H105.728V62.3223H106.066V62.6083C106.142 62.5117 106.24 62.4352 106.353 62.3853C106.465 62.3355 106.588 62.3138 106.711 62.3223C106.841 62.3134 106.971 62.3412 107.086 62.4024C107.201 62.4635 107.296 62.5557 107.362 62.6683C107.443 62.5556 107.552 62.4649 107.677 62.4045C107.803 62.3441 107.942 62.3158 108.081 62.3223C108.186 62.3145 108.292 62.3299 108.39 62.3674C108.488 62.4048 108.577 62.4635 108.65 62.5391C108.723 62.6147 108.779 62.7055 108.813 62.805C108.847 62.9044 108.858 63.0101 108.846 63.1145Z" fill="#263238"/>
<path d="M110.366 61.7444C110.366 61.7148 110.372 61.6854 110.384 61.6581C110.395 61.6309 110.412 61.6062 110.434 61.5856C110.455 61.5651 110.481 61.549 110.508 61.5385C110.536 61.5279 110.566 61.5231 110.596 61.5242C110.625 61.5227 110.654 61.5271 110.682 61.5371C110.709 61.5472 110.735 61.5627 110.756 61.5827C110.777 61.6027 110.795 61.6269 110.806 61.6537C110.818 61.6805 110.825 61.7094 110.825 61.7387C110.825 61.7994 110.801 61.8576 110.758 61.9005C110.715 61.9434 110.656 61.9675 110.596 61.9675C110.535 61.9675 110.476 61.9434 110.433 61.9005C110.39 61.8576 110.366 61.7994 110.366 61.7387V61.7444ZM110.426 62.3164H110.765V64.184H110.426V62.3164Z" fill="#263238"/>
<path d="M114.512 63.1145V64.1898H114.173V63.1545C114.173 62.7884 113.996 62.6083 113.689 62.6083C113.608 62.6032 113.527 62.6161 113.452 62.6462C113.376 62.6764 113.309 62.7228 113.254 62.7823C113.199 62.8418 113.158 62.9127 113.134 62.99C113.11 63.0672 113.104 63.1489 113.115 63.2289V64.1898H112.777V63.1545C112.777 62.7884 112.602 62.6083 112.293 62.6083C111.983 62.6083 111.734 62.8228 111.734 63.2289V64.1898H111.393V62.3223H111.719V62.6083C111.796 62.5119 111.894 62.4355 112.006 62.3856C112.119 62.3358 112.242 62.3141 112.364 62.3223C112.494 62.3134 112.624 62.3412 112.739 62.4023C112.854 62.4635 112.95 62.5557 113.015 62.6683C113.097 62.5556 113.205 62.4649 113.331 62.4045C113.457 62.3441 113.595 62.3158 113.735 62.3223C113.841 62.3127 113.947 62.3267 114.047 62.3634C114.147 62.4001 114.237 62.4585 114.312 62.5343C114.386 62.6102 114.443 62.7016 114.477 62.8019C114.512 62.9023 114.523 63.009 114.512 63.1145Z" fill="#263238"/>
<path d="M116.618 63.0631V64.1899H116.297V63.944C116.226 64.0361 116.132 64.1087 116.025 64.1552C115.918 64.2017 115.8 64.2205 115.684 64.2099C115.26 64.2099 114.99 63.984 114.99 63.6608C114.99 63.3376 115.185 63.1145 115.744 63.1145H116.28V63.0488C116.28 62.7628 116.114 62.5969 115.779 62.5969C115.563 62.5943 115.354 62.6661 115.185 62.8L115.045 62.5454C115.268 62.382 115.539 62.2974 115.816 62.3052C116.329 62.3052 116.618 62.5511 116.618 63.0631ZM116.28 63.6179V63.3577H115.756C115.423 63.3577 115.326 63.4892 115.326 63.6437C115.326 63.7981 115.48 63.9468 115.738 63.9468C115.852 63.9557 115.965 63.9288 116.063 63.8697C116.16 63.8107 116.236 63.7226 116.28 63.6179Z" fill="#263238"/>
<path d="M119.047 62.3222V63.9352C119.047 64.5959 118.711 64.8933 118.075 64.8933C117.753 64.9044 117.438 64.8033 117.183 64.6073L117.344 64.347C117.551 64.5067 117.805 64.5923 118.066 64.5901C118.508 64.5901 118.708 64.3842 118.708 63.9638V63.8151C118.624 63.9093 118.52 63.9837 118.404 64.0332C118.287 64.0826 118.161 64.1058 118.035 64.1011C117.916 64.1011 117.798 64.0777 117.688 64.0323C117.578 63.9869 117.478 63.9203 117.394 63.8364C117.31 63.7525 117.243 63.6528 117.198 63.5432C117.152 63.4335 117.129 63.316 117.129 63.1973C117.129 63.0786 117.152 62.9611 117.198 62.8515C117.243 62.7418 117.31 62.6422 117.394 62.5583C117.478 62.4743 117.578 62.4078 117.688 62.3624C117.798 62.3169 117.916 62.2936 118.035 62.2936C118.166 62.2887 118.296 62.3137 118.416 62.3668C118.535 62.4198 118.641 62.4994 118.726 62.5996V62.3136L119.047 62.3222ZM118.714 63.2059C118.721 63.0773 118.689 62.9495 118.622 62.8392C118.556 62.7289 118.457 62.6411 118.34 62.5872C118.223 62.5333 118.092 62.5157 117.965 62.5367C117.837 62.5578 117.719 62.6165 117.626 62.7053C117.532 62.794 117.467 62.9088 117.44 63.0346C117.412 63.1605 117.423 63.2917 117.471 63.4112C117.52 63.5308 117.603 63.6332 117.71 63.7052C117.817 63.7772 117.943 63.8155 118.072 63.8151C118.155 63.8215 118.239 63.8104 118.318 63.7825C118.396 63.7546 118.468 63.7105 118.529 63.6531C118.59 63.5956 118.637 63.5262 118.669 63.4491C118.701 63.3721 118.716 63.2892 118.714 63.2059Z" fill="#263238"/>
<path d="M121.374 63.369H119.858C119.879 63.529 119.961 63.6747 120.087 63.7763C120.213 63.8779 120.373 63.9276 120.534 63.9152C120.636 63.919 120.737 63.9007 120.83 63.8617C120.924 63.8227 121.008 63.7639 121.076 63.6893L121.262 63.9066C121.125 64.047 120.949 64.1445 120.757 64.1873C120.564 64.23 120.364 64.2162 120.179 64.1474C119.995 64.0787 119.834 63.958 119.717 63.8001C119.6 63.6421 119.531 63.4536 119.519 63.2574C119.514 63.1323 119.534 63.0074 119.579 62.8905C119.624 62.7736 119.693 62.6672 119.781 62.5778C119.868 62.4885 119.974 62.4182 120.09 62.3712C120.207 62.3243 120.331 62.3018 120.457 62.305C120.583 62.3016 120.708 62.3243 120.824 62.3719C120.94 62.4195 121.046 62.4908 121.133 62.5812C121.22 62.6717 121.287 62.7794 121.33 62.8973C121.373 63.0152 121.391 63.1408 121.383 63.266C121.383 63.3005 121.38 63.3349 121.374 63.369ZM119.858 63.1259H121.059C121.041 62.9793 120.97 62.8443 120.86 62.7463C120.749 62.6483 120.606 62.5942 120.458 62.5942C120.31 62.5942 120.168 62.6483 120.057 62.7463C119.946 62.8443 119.875 62.9793 119.858 63.1259Z" fill="#263238"/>
<path d="M105.453 77.2429H89.2991C89.0317 77.2422 88.7755 77.1359 88.5864 76.9472C88.3974 76.7586 88.2908 76.503 88.29 76.2362C88.2908 75.9694 88.3974 75.7138 88.5864 75.5252C88.7755 75.3366 89.0317 75.2302 89.2991 75.2295H105.453C105.72 75.2295 105.977 75.3356 106.166 75.5244C106.356 75.7131 106.462 75.9692 106.462 76.2362C106.462 76.5032 106.356 76.7593 106.166 76.9481C105.977 77.1369 105.72 77.2429 105.453 77.2429Z" fill="#761B7B"/>
<path d="M101.723 79.5083V80.5779H101.537V80.4178C101.495 80.4739 101.44 80.5188 101.376 80.5487C101.313 80.5786 101.243 80.5926 101.173 80.5894C101.11 80.5963 101.046 80.589 100.987 80.568C100.927 80.5469 100.873 80.5127 100.829 80.4678C100.784 80.4229 100.751 80.3686 100.73 80.309C100.71 80.2493 100.703 80.1858 100.711 80.1232V79.5083H100.906V80.1032C100.906 80.312 101.012 80.4178 101.193 80.4178C101.239 80.4208 101.286 80.4134 101.33 80.3961C101.373 80.3788 101.412 80.3521 101.444 80.3178C101.476 80.2836 101.5 80.2427 101.514 80.1982C101.528 80.1536 101.532 80.1065 101.525 80.0603V79.5083H101.723Z" fill="#263238"/>
<path d="M103.199 80.0399C103.203 80.1121 103.191 80.1843 103.165 80.2518C103.14 80.3194 103.1 80.3808 103.049 80.4322C102.998 80.4836 102.937 80.5238 102.869 80.5503C102.802 80.5768 102.73 80.589 102.657 80.5862C102.586 80.5888 102.514 80.5747 102.449 80.5449C102.384 80.5151 102.327 80.4705 102.282 80.4146V80.9665H102.087V79.5079H102.273V79.6767C102.318 79.6185 102.377 79.5719 102.444 79.5406C102.51 79.5092 102.584 79.4941 102.657 79.4965C102.73 79.4937 102.802 79.5058 102.869 79.5321C102.936 79.5585 102.997 79.5984 103.048 79.6495C103.099 79.7006 103.139 79.7617 103.165 79.8289C103.191 79.8961 103.202 79.9679 103.199 80.0399ZM103.004 80.0399C103.001 79.9687 102.978 79.9 102.936 79.8422C102.894 79.7843 102.837 79.74 102.77 79.7147C102.703 79.6894 102.63 79.6842 102.561 79.6998C102.491 79.7154 102.428 79.7511 102.378 79.8024C102.329 79.8537 102.295 79.9184 102.282 79.9884C102.269 80.0585 102.277 80.1308 102.305 80.1963C102.333 80.2618 102.38 80.3178 102.439 80.3571C102.499 80.3964 102.569 80.4174 102.64 80.4174C102.69 80.4195 102.74 80.4111 102.786 80.3928C102.833 80.3745 102.875 80.3466 102.91 80.311C102.944 80.2754 102.971 80.2328 102.989 80.1861C103.006 80.1394 103.013 80.0896 103.01 80.0399H103.004Z" fill="#263238"/>
<path d="M103.486 79.0762H103.681V80.5748H103.486V79.0762Z" fill="#263238"/>
<path d="M103.942 80.0401C103.939 79.93 103.97 79.8217 104.029 79.7288C104.089 79.6359 104.174 79.5627 104.276 79.5184C104.377 79.474 104.489 79.4605 104.597 79.4796C104.706 79.4987 104.807 79.5495 104.887 79.6256C104.966 79.7017 105.022 79.7996 105.046 79.9071C105.07 80.0147 105.062 80.1269 105.022 80.2297C104.982 80.3324 104.913 80.4212 104.823 80.4847C104.732 80.5482 104.625 80.5836 104.515 80.5864C104.44 80.592 104.366 80.582 104.295 80.5569C104.225 80.5318 104.16 80.4922 104.106 80.4407C104.052 80.3892 104.01 80.3269 103.981 80.2579C103.953 80.1889 103.939 80.1147 103.942 80.0401ZM104.862 80.0401C104.866 79.9899 104.86 79.9393 104.844 79.8916C104.828 79.8438 104.802 79.7999 104.768 79.7628C104.734 79.7256 104.692 79.6959 104.646 79.6755C104.6 79.6552 104.55 79.6447 104.499 79.6447C104.449 79.6447 104.399 79.6552 104.352 79.6755C104.306 79.6959 104.265 79.7256 104.231 79.7628C104.196 79.7999 104.171 79.8438 104.154 79.8916C104.138 79.9393 104.132 79.9899 104.137 80.0401C104.132 80.0904 104.138 80.141 104.154 80.1887C104.171 80.2365 104.196 80.2803 104.231 80.3175C104.265 80.3547 104.306 80.3844 104.352 80.4047C104.399 80.4251 104.449 80.4356 104.499 80.4356C104.55 80.4356 104.6 80.4251 104.646 80.4047C104.692 80.3844 104.734 80.3547 104.768 80.3175C104.802 80.2803 104.828 80.2365 104.844 80.1887C104.86 80.141 104.866 80.0904 104.862 80.0401Z" fill="#263238"/>
<path d="M106.17 79.9287V80.5751H105.984V80.4349C105.943 80.4882 105.889 80.5301 105.827 80.5567C105.765 80.5832 105.698 80.5935 105.631 80.5865C105.39 80.5865 105.235 80.4578 105.235 80.2719C105.235 80.086 105.347 79.9602 105.665 79.9602H105.975V79.9201C105.975 79.7571 105.88 79.6627 105.688 79.6627C105.565 79.6608 105.444 79.7011 105.347 79.7771L105.267 79.6313C105.394 79.5373 105.55 79.489 105.708 79.494C106.004 79.5083 106.17 79.637 106.17 79.9287ZM105.975 80.249V80.1003H105.674C105.482 80.1003 105.427 80.1747 105.427 80.2634C105.427 80.352 105.516 80.4378 105.665 80.4378C105.73 80.4428 105.795 80.4273 105.851 80.3934C105.906 80.3595 105.95 80.309 105.975 80.249Z" fill="#263238"/>
<path d="M107.549 79.0762V80.5748H107.362V80.4061C107.318 80.4649 107.261 80.5121 107.194 80.5435C107.128 80.5749 107.055 80.5896 106.981 80.5863C106.836 80.5863 106.697 80.5287 106.594 80.4263C106.491 80.3238 106.434 80.1849 106.434 80.04C106.434 79.8951 106.491 79.7562 106.594 79.6537C106.697 79.5513 106.836 79.4937 106.981 79.4937C107.052 79.4913 107.123 79.5055 107.188 79.5353C107.253 79.5651 107.309 79.6096 107.354 79.6653V79.0762H107.549ZM107.357 80.04C107.353 79.9695 107.329 79.9016 107.288 79.8447C107.246 79.7877 107.188 79.7442 107.122 79.7195C107.056 79.6949 106.984 79.6902 106.915 79.7059C106.846 79.7217 106.783 79.7573 106.735 79.8083C106.686 79.8593 106.653 79.9235 106.64 79.9929C106.628 80.0623 106.636 80.1339 106.664 80.1987C106.691 80.2636 106.738 80.3189 106.797 80.3578C106.856 80.3967 106.925 80.4174 106.995 80.4175C107.045 80.4188 107.094 80.4099 107.139 80.3911C107.185 80.3724 107.226 80.3443 107.26 80.3088C107.294 80.2732 107.32 80.2309 107.337 80.1846C107.354 80.1383 107.36 80.089 107.357 80.04Z" fill="#263238"/>
<path d="M107.884 79.1734C107.883 79.1472 107.89 79.1212 107.903 79.0988C107.917 79.0765 107.937 79.0587 107.961 79.0479C107.985 79.037 108.012 79.0336 108.038 79.038C108.064 79.0424 108.088 79.0545 108.107 79.0726C108.126 79.0908 108.139 79.1142 108.145 79.1399C108.15 79.1655 108.148 79.1923 108.138 79.2166C108.128 79.241 108.111 79.2619 108.09 79.2766C108.068 79.2913 108.042 79.2992 108.016 79.2993C107.999 79.3 107.982 79.2973 107.966 79.2914C107.95 79.2854 107.935 79.2762 107.923 79.2645C107.911 79.2527 107.901 79.2386 107.894 79.2229C107.887 79.2073 107.884 79.1904 107.884 79.1734ZM107.918 79.5052H108.113V80.5748H107.918V79.5052Z" fill="#263238"/>
<path d="M109.506 79.9599V80.5748H109.311V79.9828C109.311 79.7711 109.205 79.6682 109.024 79.6682C108.977 79.6644 108.93 79.6712 108.886 79.6879C108.842 79.7046 108.802 79.7309 108.77 79.7648C108.737 79.7988 108.712 79.8395 108.697 79.8841C108.682 79.9287 108.678 79.9761 108.683 80.0228V80.5748H108.488V79.508H108.675V79.6682C108.721 79.611 108.78 79.5656 108.847 79.5358C108.915 79.506 108.988 79.4925 109.062 79.4966C109.123 79.4924 109.184 79.5017 109.241 79.5238C109.298 79.5459 109.35 79.5803 109.392 79.6245C109.435 79.6687 109.467 79.7216 109.487 79.7796C109.506 79.8376 109.513 79.8991 109.506 79.9599Z" fill="#263238"/>
<path d="M110.896 79.5079V80.4317C110.907 80.507 110.901 80.5839 110.877 80.6562C110.853 80.7285 110.812 80.7941 110.758 80.8478C110.704 80.9015 110.638 80.9418 110.565 80.9654C110.493 80.989 110.416 80.9953 110.34 80.9837C110.156 80.9917 109.974 80.935 109.827 80.8235L109.919 80.6719C110.037 80.765 110.184 80.8145 110.334 80.8121C110.587 80.8121 110.701 80.6948 110.701 80.4517V80.3659C110.653 80.4207 110.594 80.464 110.527 80.4927C110.46 80.5214 110.387 80.5348 110.314 80.5318C110.243 80.5371 110.171 80.5276 110.103 80.5039C110.035 80.4802 109.973 80.4429 109.921 80.3942C109.868 80.3454 109.826 80.2864 109.797 80.2208C109.769 80.1551 109.754 80.0843 109.754 80.0127C109.754 79.9411 109.769 79.8703 109.797 79.8046C109.826 79.739 109.868 79.68 109.921 79.6313C109.973 79.5825 110.035 79.5452 110.103 79.5215C110.171 79.4978 110.243 79.4883 110.314 79.4936C110.39 79.4907 110.465 79.5052 110.534 79.5359C110.603 79.5667 110.664 79.6129 110.713 79.6709V79.5079H110.896ZM110.707 80.0141C110.71 79.9405 110.692 79.8676 110.653 79.8047C110.615 79.7418 110.558 79.6919 110.491 79.6613C110.424 79.6307 110.349 79.6209 110.276 79.6332C110.203 79.6454 110.136 79.6791 110.082 79.73C110.029 79.7808 109.992 79.8465 109.976 79.9185C109.961 79.9905 109.967 80.0655 109.994 80.1339C110.022 80.2023 110.069 80.261 110.13 80.3023C110.191 80.3437 110.263 80.3658 110.337 80.3659C110.385 80.3691 110.434 80.3623 110.479 80.3458C110.524 80.3293 110.566 80.3035 110.601 80.2701C110.635 80.2367 110.663 80.1965 110.681 80.1519C110.7 80.1073 110.708 80.0594 110.707 80.0113V80.0141Z" fill="#263238"/>
<path d="M111.178 80.4488C111.177 80.4307 111.18 80.4127 111.187 80.3958C111.194 80.379 111.204 80.3637 111.217 80.3509C111.23 80.3381 111.245 80.328 111.262 80.3212C111.279 80.3144 111.297 80.3112 111.315 80.3116C111.353 80.3116 111.39 80.3266 111.416 80.3534C111.443 80.3803 111.458 80.4166 111.458 80.4546C111.458 80.4925 111.443 80.5289 111.416 80.5557C111.39 80.5825 111.353 80.5976 111.315 80.5976C111.296 80.5981 111.277 80.5945 111.259 80.587C111.241 80.5796 111.226 80.5684 111.212 80.5544C111.199 80.5403 111.19 80.5236 111.184 80.5054C111.178 80.4872 111.175 80.4679 111.178 80.4488Z" fill="#263238"/>
<path d="M111.637 80.4488C111.636 80.4307 111.639 80.4127 111.646 80.3958C111.653 80.379 111.663 80.3637 111.676 80.3509C111.689 80.3381 111.704 80.328 111.721 80.3212C111.738 80.3144 111.756 80.3112 111.774 80.3116C111.812 80.3116 111.849 80.3266 111.875 80.3534C111.902 80.3803 111.917 80.4166 111.917 80.4546C111.917 80.4925 111.902 80.5289 111.875 80.5557C111.849 80.5825 111.812 80.5976 111.774 80.5976C111.755 80.5981 111.736 80.5945 111.718 80.587C111.7 80.5796 111.685 80.5684 111.671 80.5544C111.658 80.5403 111.649 80.5236 111.643 80.5054C111.637 80.4872 111.634 80.4679 111.637 80.4488Z" fill="#263238"/>
<path d="M112.087 80.4488C112.086 80.4307 112.09 80.4127 112.096 80.3958C112.103 80.379 112.113 80.3637 112.126 80.3509C112.139 80.3381 112.154 80.328 112.171 80.3212C112.188 80.3144 112.206 80.3112 112.224 80.3116C112.262 80.3116 112.299 80.3266 112.326 80.3534C112.353 80.3803 112.368 80.4166 112.368 80.4546C112.368 80.4925 112.353 80.5289 112.326 80.5557C112.299 80.5825 112.262 80.5976 112.224 80.5976C112.205 80.5981 112.186 80.5945 112.168 80.587C112.151 80.5796 112.135 80.5684 112.122 80.5544C112.109 80.5403 112.099 80.5236 112.093 80.5054C112.087 80.4872 112.085 80.4679 112.087 80.4488Z" fill="#263238"/>
<path d="M105.229 73.2159C105.229 73.5534 104.986 73.828 104.481 73.828C104.22 73.8337 103.964 73.7488 103.759 73.5877L103.888 73.3675C104.053 73.5063 104.263 73.5805 104.478 73.5763C104.765 73.5763 104.946 73.439 104.946 73.2245C104.946 73.01 104.805 72.867 104.349 72.867H103.902L104.005 71.8374H105.118V72.0719H104.243L104.189 72.6125H104.41C104.997 72.6067 105.229 72.8527 105.229 73.2159Z" fill="#761B7B"/>
<path d="M105.461 72.807C105.461 72.1664 105.805 71.8003 106.266 71.8003C106.728 71.8003 107.069 72.1664 107.069 72.807C107.069 73.4477 106.725 73.8137 106.266 73.8137C105.808 73.8137 105.461 73.4477 105.461 72.807ZM106.788 72.807C106.788 72.3037 106.573 72.052 106.266 72.052C105.96 72.052 105.742 72.3037 105.742 72.807C105.742 73.3104 105.957 73.562 106.266 73.562C106.576 73.562 106.788 73.3104 106.788 72.807Z" fill="#761B7B"/>
<path d="M107.31 72.358C107.301 72.292 107.306 72.2249 107.325 72.161C107.344 72.0971 107.376 72.0379 107.419 71.9872C107.462 71.9365 107.516 71.8954 107.576 71.8667C107.636 71.8379 107.702 71.8221 107.769 71.8203C108.041 71.8203 108.224 72.0348 108.224 72.358C108.224 72.6812 108.041 72.8928 107.769 72.8928C107.702 72.8914 107.636 72.876 107.576 72.8475C107.516 72.8191 107.463 72.7783 107.419 72.7278C107.376 72.6773 107.344 72.6183 107.325 72.5546C107.306 72.4908 107.301 72.4238 107.31 72.358ZM108.044 72.358C108.044 72.1206 107.941 71.9805 107.757 71.9805C107.574 71.9805 107.47 72.1235 107.47 72.358C107.47 72.5925 107.579 72.7327 107.757 72.7327C107.935 72.7327 108.044 72.5782 108.044 72.358ZM108.955 71.8375H109.173L107.826 73.8052H107.611L108.955 71.8375ZM108.56 73.2846C108.574 73.1972 108.613 73.1157 108.672 73.0498C108.732 72.9838 108.809 72.9362 108.894 72.9125C108.98 72.8889 109.07 72.8902 109.155 72.9163C109.24 72.9424 109.315 72.9922 109.373 73.0598C109.43 73.1274 109.467 73.21 109.478 73.2978C109.49 73.3856 109.476 73.4749 109.439 73.5552C109.401 73.6354 109.341 73.7032 109.266 73.7506C109.191 73.7979 109.104 73.8228 109.016 73.8223C108.948 73.8204 108.881 73.8039 108.82 73.7742C108.759 73.7444 108.705 73.7019 108.662 73.6496C108.619 73.5973 108.587 73.5364 108.57 73.471C108.552 73.4056 108.549 73.3372 108.56 73.2703V73.2846ZM109.291 73.2846C109.291 73.053 109.185 72.9071 109.004 72.9071C108.824 72.9071 108.717 73.0501 108.717 73.2846C108.717 73.5192 108.821 73.6622 109.004 73.6622C109.188 73.6622 109.291 73.502 109.291 73.2703V73.2846Z" fill="#761B7B"/>
<path d="M122.283 77.2427C122.283 77.2427 122.346 77.2427 122.466 77.217C122.7 77.17 122.909 77.0409 123.056 76.853C123.203 76.6652 123.277 76.431 123.266 76.1931C123.257 75.9946 123.187 75.8036 123.066 75.6456C122.945 75.4877 122.779 75.3704 122.589 75.3094C122.356 75.2576 122.116 75.2412 121.878 75.2607H121.079H119.261H114.838L89.2155 75.2808C89.0705 75.281 88.9275 75.3147 88.7977 75.3792C88.6679 75.4437 88.5548 75.5372 88.4673 75.6526C88.3803 75.7672 88.321 75.9003 88.2941 76.0416C88.2672 76.1829 88.2735 76.3285 88.3123 76.4669C88.3512 76.6054 88.4216 76.733 88.5181 76.8398C88.6146 76.9466 88.7346 77.0297 88.8686 77.0826C89.003 77.1335 89.1465 77.1559 89.29 77.1484H100.149L111.67 77.1655L119.436 77.1884H121.546L119.436 77.2027L111.67 77.2256L100.149 77.2427H93.3464H89.29C89.1269 77.2493 88.9641 77.2231 88.8113 77.1655C88.5773 77.0722 88.3832 76.9004 88.2624 76.6797C88.1416 76.459 88.1017 76.2032 88.1496 75.9564C88.1975 75.7095 88.3301 75.487 88.5246 75.3271C88.7192 75.1673 88.9635 75.0801 89.2155 75.0806L114.838 75.1035H119.261H121.079H121.878C122.122 75.0866 122.368 75.1049 122.606 75.1578C122.805 75.225 122.979 75.3506 123.104 75.518C123.23 75.6854 123.303 75.8868 123.312 76.0959C123.317 76.2476 123.289 76.3986 123.229 76.5381C123.169 76.6776 123.079 76.802 122.965 76.9024C122.825 77.0263 122.653 77.1077 122.469 77.1369C122.412 77.1815 122.35 77.2171 122.283 77.2427Z" fill="#263238"/>
</svg>
