<svg width="22" height="22" viewBox="0 0 22 22" fill="none" xmlns="http://www.w3.org/2000/svg">
<path d="M11.0007 1.83325C5.94065 1.83325 1.83398 5.93992 1.83398 10.9999C1.83398 16.0599 5.94065 20.1666 11.0007 20.1666C16.0607 20.1666 20.1673 16.0599 20.1673 10.9999C20.1673 5.93992 16.0607 1.83325 11.0007 1.83325ZM11.0007 18.3333C6.95815 18.3333 3.66732 15.0424 3.66732 10.9999C3.66732 6.95742 6.95815 3.66659 11.0007 3.66659C15.0431 3.66659 18.334 6.95742 18.334 10.9999C18.334 15.0424 15.0431 18.3333 11.0007 18.3333ZM15.2082 6.94825L9.16732 12.9891L6.79315 10.6241L5.50065 11.9166L9.16732 15.5833L16.5007 8.24992L15.2082 6.94825Z" fill="#56CA00"/>
</svg>
