<svg width="28" height="28" viewBox="0 0 28 28" fill="none" xmlns="http://www.w3.org/2000/svg">
<path fill-rule="evenodd" clip-rule="evenodd" d="M9.11134 2.33325H18.888C23.1347 2.33325 25.6663 4.86492 25.6547 9.11159V18.8883C25.6547 23.1349 23.123 25.6666 18.8763 25.6666H9.11134C4.86467 25.6666 2.33301 23.1349 2.33301 18.8766V9.11159C2.33301 4.86492 4.86467 2.33325 9.11134 2.33325ZM18.3307 19.5683L13.9996 15.2373L9.66859 19.5683C9.33036 19.9066 8.76939 19.9066 8.43116 19.5683C8.09292 19.2301 8.09292 18.6691 8.43116 18.3309L12.7622 13.9999L8.43116 9.66883C8.09292 9.33059 8.09292 8.76962 8.43116 8.43139C8.76939 8.09316 9.33036 8.09316 9.66859 8.43139L13.9996 12.7624L18.3307 8.43139C18.6689 8.09316 19.2299 8.09316 19.5681 8.43139C19.9063 8.76962 19.9063 9.33059 19.5681 9.66883L15.2371 13.9999L19.5681 18.3309C19.9063 18.6691 19.9063 19.2301 19.5681 19.5683C19.2299 19.9066 18.6689 19.9066 18.3307 19.5683Z" fill="black"/>
</svg>
