<svg width="19" height="19" viewBox="0 0 19 19" fill="none" xmlns="http://www.w3.org/2000/svg">
<g clip-path="url(#clip0_109_1896)">
<path d="M15.8333 7.125H8.70833C7.83388 7.125 7.125 7.83388 7.125 8.70833V15.8333C7.125 16.7078 7.83388 17.4167 8.70833 17.4167H15.8333C16.7078 17.4167 17.4167 16.7078 17.4167 15.8333V8.70833C17.4167 7.83388 16.7078 7.125 15.8333 7.125Z" stroke="black" stroke-opacity="0.4" stroke-width="2" stroke-linecap="round" stroke-linejoin="round"/>
<path d="M3.95898 11.8752H3.16732C2.74739 11.8752 2.34466 11.7083 2.04773 11.4114C1.7508 11.1145 1.58398 10.7118 1.58398 10.2918V3.16683C1.58398 2.7469 1.7508 2.34418 2.04773 2.04724C2.34466 1.75031 2.74739 1.5835 3.16732 1.5835H10.2923C10.7122 1.5835 11.115 1.75031 11.4119 2.04724C11.7088 2.34418 11.8757 2.7469 11.8757 3.16683V3.9585" stroke="black" stroke-opacity="0.4" stroke-width="2" stroke-linecap="round" stroke-linejoin="round"/>
</g>
<defs>
<clipPath id="clip0_109_1896">
<rect width="19" height="19" fill="white"/>
</clipPath>
</defs>
</svg>
