<?xml version="1.0" encoding="UTF-8" standalone="no"?>
<svg
   width="77"
   height="77"
   viewBox="0 0 77 77"
   fill="none"
   version="1.1"
   id="svg20"
   sodipodi:docname="loading-spinner.svg"
   inkscape:version="1.1.1 (3bf5ae0d25, 2021-09-20)"
   xmlns:inkscape="http://www.inkscape.org/namespaces/inkscape"
   xmlns:sodipodi="http://sodipodi.sourceforge.net/DTD/sodipodi-0.dtd"
   xmlns="http://www.w3.org/2000/svg"
   xmlns:svg="http://www.w3.org/2000/svg">
  <defs
     id="defs24" />
  <sodipodi:namedview
     id="namedview22"
     pagecolor="#ffffff"
     bordercolor="#666666"
     borderopacity="1.0"
     inkscape:pageshadow="2"
     inkscape:pageopacity="0.0"
     inkscape:pagecheckerboard="0"
     showgrid="false"
     inkscape:zoom="10.883117"
     inkscape:cx="38.454057"
     inkscape:cy="38.545943"
     inkscape:window-width="1920"
     inkscape:window-height="1001"
     inkscape:window-x="-9"
     inkscape:window-y="-9"
     inkscape:window-maximized="1"
     inkscape:current-layer="svg20" />
  <path
     d="M61.178 1.05469H15.8218C7.66615 1.05469 1.05469 7.66615 1.05469 15.8218V61.178C1.05469 69.3336 7.66615 75.9451 15.8218 75.9451H61.178C69.3336 75.9451 75.9451 69.3336 75.9451 61.178V15.8218C75.9451 7.66615 69.3336 1.05469 61.178 1.05469Z"
     fill="white"
     id="path2"
     style="fill:#ffffff;fill-opacity:0" />
  <path
     d="M24.2945 49.1052C22.9737 49.1052 21.8513 49.5674 20.9268 50.4917C20.0027 51.4169 19.5403 52.5391 19.5403 53.8599C19.5403 55.1809 20.0023 56.3031 20.9268 57.2283C21.8516 58.1526 22.974 58.6148 24.2945 58.6148C25.5932 58.6148 26.7099 58.1526 27.6455 57.2283C28.5807 56.3043 29.0483 55.1809 29.0483 53.8599C29.0483 52.5391 28.5808 51.4177 27.6455 50.4917C26.7098 49.5682 25.5932 49.1052 24.2945 49.1052Z"
     fill="#761B7B"
     id="path4" />
  <path
     d="M23.2382 39.0697C23.2382 37.6171 22.7212 36.374 21.6866 35.3386C20.6522 34.3042 19.4085 33.7871 17.9559 33.7871C16.5033 33.7871 15.2598 34.3043 14.2252 35.3386C13.1909 36.3732 12.6738 37.6167 12.6738 39.0697C12.6738 40.522 13.1908 41.7649 14.2252 42.7997C15.2598 43.8345 16.5033 44.3517 17.9559 44.3517C19.4085 44.3517 20.6522 43.8345 21.6866 42.7997C22.7212 41.7656 23.2382 40.522 23.2382 39.0697Z"
     fill="#761B7B"
     id="path6" />
  <path
     d="M53.8743 26.9214C54.5999 26.9214 55.2227 26.6623 55.7393 26.1454C56.2565 25.6279 56.5156 25.0059 56.5156 24.2798C56.5156 23.5533 56.2565 22.9318 55.7393 22.4147C55.2224 21.8972 54.5999 21.6387 53.8743 21.6387C53.1477 21.6387 52.5257 21.8977 52.0084 22.4147C51.4916 22.9319 51.2329 23.5533 51.2329 24.2798C51.2329 25.0063 51.4916 25.6279 52.0084 26.1454C52.5257 26.6628 53.1477 26.9214 53.8743 26.9214Z"
     fill="#761B7B"
     id="path8" />
  <path
     d="M24.2949 18.4695C22.688 18.4695 21.318 19.0363 20.1845 20.1696C19.0508 21.3029 18.4844 22.673 18.4844 24.2796C18.4844 25.8867 19.0508 27.2562 20.1845 28.39C21.3184 29.5236 22.6883 30.0903 24.2949 30.0903C25.9015 30.0903 27.2716 29.5233 28.4049 28.39C29.5382 27.2562 30.105 25.8864 30.105 24.2796C30.105 22.673 29.5382 21.3029 28.4049 20.1696C27.2716 19.0363 25.9015 18.4695 24.2949 18.4695Z"
     fill="#761B7B"
     id="path10" />
  <path
     d="M62.4576 36.8245C61.8415 36.2082 61.0932 35.9004 60.2132 35.9004C59.3323 35.9004 58.5841 36.2082 57.968 36.8245C57.3522 37.4408 57.0444 38.1893 57.0444 39.0702C57.0444 39.9501 57.3522 40.6996 57.968 41.3145C58.5844 41.9311 59.3323 42.2389 60.2132 42.2389C61.0932 42.2389 61.8419 41.9311 62.4576 41.3145C63.0741 40.6989 63.3816 39.9501 63.3816 39.0702C63.3816 38.1898 63.0746 37.4412 62.4576 36.8245Z"
     fill="#761B7B"
     id="path12" />
  <path
     d="M53.8744 50.1621C52.8613 50.1621 51.992 50.525 51.2655 51.2515C50.5398 51.9772 50.1765 52.8469 50.1765 53.86C50.1765 54.8722 50.5398 55.742 51.2655 56.4686C51.992 57.195 52.8614 57.5575 53.8744 57.5575C54.8866 57.5575 55.7559 57.1943 56.4824 56.4686C57.2089 55.7421 57.5719 54.8727 57.5719 53.86C57.5719 52.8469 57.2089 51.9781 56.4824 51.2515C55.756 50.5248 54.8866 50.1621 53.8744 50.1621Z"
     fill="#761B7B"
     id="path14" />
  <path
     d="M39.0843 55.9719C37.9178 55.9719 36.9218 56.3854 36.096 57.2109C35.271 58.0364 34.8582 59.0319 34.8582 60.1984C34.8582 61.365 35.2705 62.3606 36.096 63.186C36.9218 64.0115 37.9174 64.4246 39.0843 64.4246C40.2509 64.4246 41.2465 64.0115 42.072 63.186C42.8975 62.3606 43.3102 61.365 43.3102 60.1984C43.3102 59.0319 42.8975 58.0364 42.072 57.2109C41.2465 56.3854 40.2509 55.9719 39.0843 55.9719Z"
     fill="#761B7B"
     id="path16" />
  <path
     d="M39.0845 11.6025C37.324 11.6025 35.8267 12.2185 34.5941 13.451C33.3618 14.6836 32.7456 16.1806 32.7456 17.9412C32.7456 19.7019 33.3616 21.1981 34.5941 22.4309C35.8267 23.6631 37.3236 24.2794 39.0845 24.2794C40.8457 24.2794 42.342 23.6635 43.5742 22.4309C44.8063 21.1987 45.4225 19.7019 45.4225 17.9412C45.4225 16.1807 44.8063 14.6841 43.5742 13.451C42.342 12.2188 40.8457 11.6025 39.0845 11.6025Z"
     fill="#761B7B"
     id="path18" />
</svg>
